%TF.GenerationSoftware,KiCad,Pcbnew,7.0.10*%
%TF.CreationDate,2024-04-14T10:11:17-07:00*%
%TF.ProjectId,ez_usb_dev_board,657a5f75-7362-45f6-9465-765f626f6172,rev?*%
%TF.SameCoordinates,Original*%
%TF.FileFunction,Soldermask,Top*%
%TF.FilePolarity,Negative*%
%FSLAX46Y46*%
G04 Gerber Fmt 4.6, Leading zero omitted, Abs format (unit mm)*
G04 Created by KiCad (PCBNEW 7.0.10) date 2024-04-14 10:11:17*
%MOMM*%
%LPD*%
G01*
G04 APERTURE LIST*
G04 Aperture macros list*
%AMRoundRect*
0 Rectangle with rounded corners*
0 $1 Rounding radius*
0 $2 $3 $4 $5 $6 $7 $8 $9 X,Y pos of 4 corners*
0 Add a 4 corners polygon primitive as box body*
4,1,4,$2,$3,$4,$5,$6,$7,$8,$9,$2,$3,0*
0 Add four circle primitives for the rounded corners*
1,1,$1+$1,$2,$3*
1,1,$1+$1,$4,$5*
1,1,$1+$1,$6,$7*
1,1,$1+$1,$8,$9*
0 Add four rect primitives between the rounded corners*
20,1,$1+$1,$2,$3,$4,$5,0*
20,1,$1+$1,$4,$5,$6,$7,0*
20,1,$1+$1,$6,$7,$8,$9,0*
20,1,$1+$1,$8,$9,$2,$3,0*%
%AMFreePoly0*
4,1,15,-0.584200,0.000000,0.000000,0.584200,0.350520,0.584200,0.439945,0.566412,0.515757,0.515757,0.566412,0.439945,0.584200,0.350520,0.584200,0.000000,0.000000,-0.584200,-0.350520,-0.584200,-0.439945,-0.566412,-0.515757,-0.515757,-0.566412,-0.439945,-0.584200,-0.350520,-0.584200,0.000000,-0.584200,0.000000,$1*%
%AMFreePoly1*
4,1,15,-0.584200,0.350520,-0.566412,0.439945,-0.515757,0.515757,-0.439945,0.566412,-0.350520,0.584200,0.000000,0.584200,0.584200,0.000000,0.584200,-0.350520,0.566412,-0.439945,0.515757,-0.515757,0.439945,-0.566412,0.350520,-0.584200,0.000000,-0.584200,-0.584200,0.000000,-0.584200,0.350520,-0.584200,0.350520,$1*%
G04 Aperture macros list end*
%ADD10C,0.460000*%
%ADD11FreePoly0,135.000000*%
%ADD12R,1.100000X0.750000*%
%ADD13RoundRect,0.187500X-0.362500X-0.187500X0.362500X-0.187500X0.362500X0.187500X-0.362500X0.187500X0*%
%ADD14RoundRect,0.187500X0.362500X0.187500X-0.362500X0.187500X-0.362500X-0.187500X0.362500X-0.187500X0*%
%ADD15RoundRect,0.250000X-0.250000X0.250000X-0.250000X-0.250000X0.250000X-0.250000X0.250000X0.250000X0*%
%ADD16RoundRect,0.250000X0.250000X-0.250000X0.250000X0.250000X-0.250000X0.250000X-0.250000X-0.250000X0*%
%ADD17C,1.100000*%
%ADD18RoundRect,0.275000X-0.275000X-0.275000X0.275000X-0.275000X0.275000X0.275000X-0.275000X0.275000X0*%
%ADD19RoundRect,0.317500X-0.317500X-3.182500X0.317500X-3.182500X0.317500X3.182500X-0.317500X3.182500X0*%
%ADD20RoundRect,0.750000X0.750000X-0.750000X0.750000X0.750000X-0.750000X0.750000X-0.750000X-0.750000X0*%
%ADD21RoundRect,0.750000X-0.750000X0.750000X-0.750000X-0.750000X0.750000X-0.750000X0.750000X0.750000X0*%
%ADD22RoundRect,0.200000X-0.200000X-0.219100X0.200000X-0.219100X0.200000X0.219100X-0.200000X0.219100X0*%
%ADD23RoundRect,0.250000X-0.250000X-0.475000X0.250000X-0.475000X0.250000X0.475000X-0.250000X0.475000X0*%
%ADD24RoundRect,0.200000X-0.200000X-0.275000X0.200000X-0.275000X0.200000X0.275000X-0.200000X0.275000X0*%
%ADD25FreePoly0,45.000000*%
%ADD26R,0.203200X0.762000*%
%ADD27R,1.700000X1.700000*%
%ADD28O,1.700000X1.700000*%
%ADD29FreePoly0,225.000000*%
%ADD30RoundRect,0.250000X0.475000X-0.250000X0.475000X0.250000X-0.475000X0.250000X-0.475000X-0.250000X0*%
%ADD31RoundRect,0.243750X-0.243750X-0.456250X0.243750X-0.456250X0.243750X0.456250X-0.243750X0.456250X0*%
%ADD32R,0.762000X0.203200*%
%ADD33RoundRect,0.075000X-0.700000X-0.075000X0.700000X-0.075000X0.700000X0.075000X-0.700000X0.075000X0*%
%ADD34RoundRect,0.075000X-0.075000X-0.700000X0.075000X-0.700000X0.075000X0.700000X-0.075000X0.700000X0*%
%ADD35RoundRect,0.140000X-0.140000X-0.170000X0.140000X-0.170000X0.140000X0.170000X-0.140000X0.170000X0*%
%ADD36R,1.400000X1.200000*%
%ADD37RoundRect,0.250000X0.262500X0.450000X-0.262500X0.450000X-0.262500X-0.450000X0.262500X-0.450000X0*%
%ADD38FreePoly0,315.000000*%
%ADD39RoundRect,0.250000X-0.475000X0.250000X-0.475000X-0.250000X0.475000X-0.250000X0.475000X0.250000X0*%
%ADD40RoundRect,0.250000X0.700000X-0.275000X0.700000X0.275000X-0.700000X0.275000X-0.700000X-0.275000X0*%
%ADD41RoundRect,0.100000X0.100000X-0.637500X0.100000X0.637500X-0.100000X0.637500X-0.100000X-0.637500X0*%
%ADD42R,1.200000X1.400000*%
%ADD43RoundRect,0.150000X-0.825000X-0.150000X0.825000X-0.150000X0.825000X0.150000X-0.825000X0.150000X0*%
%ADD44R,0.475000X0.300000*%
%ADD45FreePoly1,135.000000*%
%ADD46RoundRect,0.140000X0.170000X-0.140000X0.170000X0.140000X-0.170000X0.140000X-0.170000X-0.140000X0*%
%ADD47R,1.525000X0.400000*%
%ADD48R,1.525000X0.425000*%
%ADD49RoundRect,0.375000X0.375000X-0.875000X0.375000X0.875000X-0.375000X0.875000X-0.375000X-0.875000X0*%
%ADD50R,1.550000X1.200000*%
%ADD51RoundRect,0.200000X-1.300000X0.300000X-1.300000X-0.300000X1.300000X-0.300000X1.300000X0.300000X0*%
%ADD52R,1.550000X1.500000*%
%ADD53RoundRect,0.375000X-0.375000X0.875000X-0.375000X-0.875000X0.375000X-0.875000X0.375000X0.875000X0*%
%ADD54RoundRect,0.150000X0.150000X-0.512500X0.150000X0.512500X-0.150000X0.512500X-0.150000X-0.512500X0*%
%ADD55FreePoly1,315.000000*%
%ADD56FreePoly1,225.000000*%
%ADD57FreePoly1,45.000000*%
G04 APERTURE END LIST*
D10*
%TO.C,IC1*%
X206500000Y-59600000D03*
X206500000Y-58800000D03*
X206500000Y-58000000D03*
X206500000Y-57200000D03*
X206500000Y-56400000D03*
X206500000Y-55600000D03*
X206500000Y-54800000D03*
X206500000Y-54000000D03*
X206500000Y-53200000D03*
X206500000Y-52400000D03*
X206500000Y-51600000D03*
X207300000Y-59600000D03*
X207300000Y-58800000D03*
X207300000Y-58000000D03*
X207300000Y-57200000D03*
X207300000Y-56400000D03*
X207300000Y-55600000D03*
X207300000Y-54800000D03*
X207300000Y-54000000D03*
X207300000Y-53200000D03*
X207300000Y-52400000D03*
X207300000Y-51600000D03*
X208100000Y-59600000D03*
X208100000Y-58800000D03*
X208100000Y-58000000D03*
X208100000Y-57200000D03*
X208100000Y-56400000D03*
X208100000Y-55600000D03*
X208100000Y-54800000D03*
X208100000Y-54000000D03*
X208100000Y-53200000D03*
X208100000Y-52400000D03*
X208100000Y-51600000D03*
X208900000Y-59600000D03*
X208900000Y-58800000D03*
X208900000Y-58000000D03*
X208900000Y-57200000D03*
X208900000Y-56400000D03*
X208900000Y-55600000D03*
X208900000Y-54800000D03*
X208900000Y-54000000D03*
X208900000Y-53200000D03*
X208900000Y-52400000D03*
X208900000Y-51600000D03*
X209700000Y-59600000D03*
X209700000Y-58800000D03*
X209700000Y-58000000D03*
X209700000Y-57200000D03*
X209700000Y-56400000D03*
X209700000Y-55600000D03*
X209700000Y-54800000D03*
X209700000Y-54000000D03*
X209700000Y-53200000D03*
X209700000Y-52400000D03*
X209700000Y-51600000D03*
X210500000Y-59600000D03*
X210500000Y-58800000D03*
X210500000Y-58000000D03*
X210500000Y-57200000D03*
X210500000Y-56400000D03*
X210500000Y-55600000D03*
X210500000Y-54800000D03*
X210500000Y-54000000D03*
X210500000Y-53200000D03*
X210500000Y-52400000D03*
X210500000Y-51600000D03*
X211300000Y-59600000D03*
X211300000Y-58800000D03*
X211300000Y-58000000D03*
X211300000Y-57200000D03*
X211300000Y-56400000D03*
X211300000Y-55600000D03*
X211300000Y-54800000D03*
X211300000Y-54000000D03*
X211300000Y-53200000D03*
X211300000Y-52400000D03*
X211300000Y-51600000D03*
X212100000Y-59600000D03*
X212100000Y-58800000D03*
X212100000Y-58000000D03*
X212100000Y-57200000D03*
X212100000Y-56400000D03*
X212100000Y-55600000D03*
X212100000Y-54800000D03*
X212100000Y-54000000D03*
X212100000Y-53200000D03*
X212100000Y-52400000D03*
X212100000Y-51600000D03*
X212900000Y-59600000D03*
X212900000Y-58800000D03*
X212900000Y-58000000D03*
X212900000Y-57200000D03*
X212900000Y-56400000D03*
X212900000Y-55600000D03*
X212900000Y-54800000D03*
X212900000Y-54000000D03*
X212900000Y-53200000D03*
X212900000Y-52400000D03*
X212900000Y-51600000D03*
X213700000Y-59600000D03*
X213700000Y-58800000D03*
X213700000Y-58000000D03*
X213700000Y-57200000D03*
X213700000Y-56400000D03*
X213700000Y-55600000D03*
X213700000Y-54800000D03*
X213700000Y-54000000D03*
X213700000Y-53200000D03*
X213700000Y-52400000D03*
X213700000Y-51600000D03*
X214500000Y-59600000D03*
X214500000Y-58800000D03*
X214500000Y-58000000D03*
X214500000Y-57200000D03*
X214500000Y-56400000D03*
X214500000Y-55600000D03*
X214500000Y-54800000D03*
X214500000Y-54000000D03*
X214500000Y-53200000D03*
X214500000Y-52400000D03*
X214500000Y-51600000D03*
%TD*%
D11*
%TO.C,CTL8*%
X215623153Y-63169800D03*
%TD*%
D12*
%TO.C,J2*%
X231615000Y-48895000D03*
D13*
X233205000Y-48895000D03*
D14*
X231615000Y-50165000D03*
D13*
X233205000Y-50165000D03*
D14*
X231615000Y-51435000D03*
D13*
X233205000Y-51435000D03*
D14*
X231615000Y-52705000D03*
D13*
X233205000Y-52705000D03*
D14*
X231615000Y-53975000D03*
D13*
X233205000Y-53975000D03*
D14*
X231615000Y-55245000D03*
D13*
X233205000Y-55245000D03*
D14*
X231615000Y-56515000D03*
D13*
X233205000Y-56515000D03*
D14*
X231615000Y-57785000D03*
D13*
X233205000Y-57785000D03*
D14*
X231615000Y-59055000D03*
D13*
X233205000Y-59055000D03*
D14*
X231615000Y-60325000D03*
D13*
X233205000Y-60325000D03*
D14*
X231615000Y-61595000D03*
D13*
X233205000Y-61595000D03*
D14*
X231615000Y-62865000D03*
D13*
X233205000Y-62865000D03*
D14*
X231615000Y-64135000D03*
D13*
X233205000Y-64135000D03*
D14*
X231615000Y-65405000D03*
D13*
X233205000Y-65405000D03*
D14*
X231615000Y-66675000D03*
D13*
X233205000Y-66675000D03*
D14*
X231615000Y-67945000D03*
D13*
X233205000Y-67945000D03*
D14*
X231615000Y-69215000D03*
D13*
X233205000Y-69215000D03*
D14*
X231615000Y-70485000D03*
D13*
X233205000Y-70485000D03*
D14*
X231615000Y-71755000D03*
D13*
X233205000Y-71755000D03*
D14*
X231615000Y-73025000D03*
D13*
X233205000Y-73025000D03*
D14*
X231615000Y-74295000D03*
D13*
X233205000Y-74295000D03*
D14*
X231615000Y-75565000D03*
D13*
X233205000Y-75565000D03*
D14*
X231615000Y-76835000D03*
D13*
X233205000Y-76835000D03*
D14*
X231615000Y-78105000D03*
D13*
X233205000Y-78105000D03*
D14*
X231615000Y-79375000D03*
D13*
X233205000Y-79375000D03*
%TD*%
D12*
%TO.C,J1*%
X222090000Y-48895000D03*
D13*
X223680000Y-48895000D03*
D14*
X222090000Y-50165000D03*
D13*
X223680000Y-50165000D03*
D14*
X222090000Y-51435000D03*
D13*
X223680000Y-51435000D03*
D14*
X222090000Y-52705000D03*
D13*
X223680000Y-52705000D03*
D14*
X222090000Y-53975000D03*
D13*
X223680000Y-53975000D03*
D14*
X222090000Y-55245000D03*
D13*
X223680000Y-55245000D03*
D14*
X222090000Y-56515000D03*
D13*
X223680000Y-56515000D03*
D14*
X222090000Y-57785000D03*
D13*
X223680000Y-57785000D03*
D14*
X222090000Y-59055000D03*
D13*
X223680000Y-59055000D03*
D14*
X222090000Y-60325000D03*
D13*
X223680000Y-60325000D03*
D14*
X222090000Y-61595000D03*
D13*
X223680000Y-61595000D03*
D14*
X222090000Y-62865000D03*
D13*
X223680000Y-62865000D03*
D14*
X222090000Y-64135000D03*
D13*
X223680000Y-64135000D03*
D14*
X222090000Y-65405000D03*
D13*
X223680000Y-65405000D03*
D14*
X222090000Y-66675000D03*
D13*
X223680000Y-66675000D03*
D14*
X222090000Y-67945000D03*
D13*
X223680000Y-67945000D03*
D14*
X222090000Y-69215000D03*
D13*
X223680000Y-69215000D03*
D14*
X222090000Y-70485000D03*
D13*
X223680000Y-70485000D03*
D14*
X222090000Y-71755000D03*
D13*
X223680000Y-71755000D03*
D14*
X222090000Y-73025000D03*
D13*
X223680000Y-73025000D03*
D14*
X222090000Y-74295000D03*
D13*
X223680000Y-74295000D03*
D14*
X222090000Y-75565000D03*
D13*
X223680000Y-75565000D03*
D14*
X222090000Y-76835000D03*
D13*
X223680000Y-76835000D03*
D14*
X222090000Y-78105000D03*
D13*
X223680000Y-78105000D03*
D14*
X222090000Y-79375000D03*
D13*
X223680000Y-79375000D03*
%TD*%
D15*
%TO.C,USB3_B1*%
X191830000Y-60010000D03*
D16*
X194320000Y-60010000D03*
X194320000Y-58010000D03*
D15*
X191830000Y-58020000D03*
D17*
X197320000Y-62010000D03*
X195570000Y-62010000D03*
D18*
X193070000Y-62010000D03*
D17*
X190570000Y-62010000D03*
X188820000Y-62010000D03*
D19*
X199300000Y-49200000D03*
D20*
X198600000Y-55300000D03*
D21*
X187600000Y-55300000D03*
D19*
X186900000Y-49300000D03*
%TD*%
D22*
%TO.C,R46*%
X226822500Y-59055000D03*
X228472500Y-59055000D03*
%TD*%
%TO.C,R32*%
X217297500Y-73025000D03*
X218947500Y-73025000D03*
%TD*%
D23*
%TO.C,IC2_C1_0*%
X227137500Y-92900000D03*
X229037500Y-92900000D03*
%TD*%
D22*
%TO.C,R17*%
X217297500Y-53975000D03*
X218947500Y-53975000D03*
%TD*%
%TO.C,R60*%
X226822500Y-76835000D03*
X228472500Y-76835000D03*
%TD*%
%TO.C,R33*%
X217297500Y-74295000D03*
X218947500Y-74295000D03*
%TD*%
D24*
%TO.C,R3*%
X231262500Y-88900000D03*
X232912500Y-88900000D03*
%TD*%
D25*
%TO.C,BDBUS4*%
X206756000Y-88394553D03*
%TD*%
%TO.C,ACBUS6*%
X202692000Y-88392000D03*
%TD*%
%TO.C,BCBUS2*%
X211836000Y-88394553D03*
%TD*%
D11*
%TO.C,TPD-1*%
X191548553Y-74500000D03*
%TD*%
D25*
%TO.C,BCBUS6*%
X214884000Y-88421553D03*
%TD*%
%TO.C,ACBUS4*%
X200660000Y-88394553D03*
%TD*%
D22*
%TO.C,R16*%
X217297500Y-52705000D03*
X218947500Y-52705000D03*
%TD*%
D26*
%TO.C,NT4*%
X207300000Y-68281000D03*
X207300000Y-67519000D03*
%TD*%
D22*
%TO.C,R58*%
X226822500Y-74295000D03*
X228472500Y-74295000D03*
%TD*%
D27*
%TO.C,V5_SEL_MICRO1*%
X189235000Y-82726000D03*
D28*
X186695000Y-82726000D03*
%TD*%
D29*
%TO.C,ACBUS3*%
X200152000Y-89789000D03*
%TD*%
D22*
%TO.C,R44*%
X226822500Y-56515000D03*
X228472500Y-56515000D03*
%TD*%
D30*
%TO.C,IC3_C1_2*%
X218186000Y-90805000D03*
X218186000Y-88905000D03*
%TD*%
D22*
%TO.C,R49*%
X226822500Y-62865000D03*
X228472500Y-62865000D03*
%TD*%
%TO.C,R52*%
X226822500Y-66675000D03*
X228472500Y-66675000D03*
%TD*%
D31*
%TO.C,D3*%
X188062500Y-91000000D03*
X189937500Y-91000000D03*
%TD*%
D29*
%TO.C,BDBUS5*%
X207264000Y-89786447D03*
%TD*%
D32*
%TO.C,NT6*%
X208153000Y-76362000D03*
X208915000Y-76362000D03*
%TD*%
D22*
%TO.C,R41*%
X226822500Y-52705000D03*
X228472500Y-52705000D03*
%TD*%
%TO.C,R20*%
X217297500Y-57785000D03*
X218947500Y-57785000D03*
%TD*%
D29*
%TO.C,3V3_9*%
X214376000Y-89813447D03*
%TD*%
D26*
%TO.C,NT2*%
X205200000Y-68281000D03*
X205200000Y-67519000D03*
%TD*%
D29*
%TO.C,BCBUS7*%
X215392000Y-89813447D03*
%TD*%
D22*
%TO.C,R39*%
X226822500Y-50165000D03*
X228472500Y-50165000D03*
%TD*%
D29*
%TO.C,GND10*%
X210312000Y-89786447D03*
%TD*%
D22*
%TO.C,R59*%
X226822500Y-75565000D03*
X228472500Y-75565000D03*
%TD*%
%TO.C,R51*%
X226822500Y-65405000D03*
X228472500Y-65405000D03*
%TD*%
D29*
%TO.C,GND5*%
X195072000Y-89786447D03*
%TD*%
D22*
%TO.C,R62*%
X226822500Y-79375000D03*
X228472500Y-79375000D03*
%TD*%
D25*
%TO.C,WC1*%
X213868000Y-72138553D03*
%TD*%
%TO.C,ADBUS5*%
X195580000Y-88394553D03*
%TD*%
D33*
%TO.C,U1*%
X195075000Y-72250000D03*
X195075000Y-72750000D03*
X195075000Y-73250000D03*
X195075000Y-73750000D03*
X195075000Y-74250000D03*
X195075000Y-74750000D03*
X195075000Y-75250000D03*
X195075000Y-75750000D03*
X195075000Y-76250000D03*
X195075000Y-76750000D03*
X195075000Y-77250000D03*
X195075000Y-77750000D03*
X195075000Y-78250000D03*
X195075000Y-78750000D03*
X195075000Y-79250000D03*
X195075000Y-79750000D03*
D34*
X197000000Y-81675000D03*
X197500000Y-81675000D03*
X198000000Y-81675000D03*
X198500000Y-81675000D03*
X199000000Y-81675000D03*
X199500000Y-81675000D03*
X200000000Y-81675000D03*
X200500000Y-81675000D03*
X201000000Y-81675000D03*
X201500000Y-81675000D03*
X202000000Y-81675000D03*
X202500000Y-81675000D03*
X203000000Y-81675000D03*
X203500000Y-81675000D03*
X204000000Y-81675000D03*
X204500000Y-81675000D03*
D33*
X206425000Y-79750000D03*
X206425000Y-79250000D03*
X206425000Y-78750000D03*
X206425000Y-78250000D03*
X206425000Y-77750000D03*
X206425000Y-77250000D03*
X206425000Y-76750000D03*
X206425000Y-76250000D03*
X206425000Y-75750000D03*
X206425000Y-75250000D03*
X206425000Y-74750000D03*
X206425000Y-74250000D03*
X206425000Y-73750000D03*
X206425000Y-73250000D03*
X206425000Y-72750000D03*
X206425000Y-72250000D03*
D34*
X204500000Y-70325000D03*
X204000000Y-70325000D03*
X203500000Y-70325000D03*
X203000000Y-70325000D03*
X202500000Y-70325000D03*
X202000000Y-70325000D03*
X201500000Y-70325000D03*
X201000000Y-70325000D03*
X200500000Y-70325000D03*
X200000000Y-70325000D03*
X199500000Y-70325000D03*
X199000000Y-70325000D03*
X198500000Y-70325000D03*
X198000000Y-70325000D03*
X197500000Y-70325000D03*
X197000000Y-70325000D03*
%TD*%
D25*
%TO.C,ACBUS2*%
X199644000Y-88394553D03*
%TD*%
D35*
%TO.C,U4C0_2*%
X210848000Y-76200000D03*
X211808000Y-76200000D03*
%TD*%
D29*
%TO.C,BDBUS7*%
X209296000Y-89786447D03*
%TD*%
D25*
%TO.C,ADBUS0*%
X191516000Y-88392000D03*
%TD*%
D29*
%TO.C,3V3_3*%
X202184000Y-89786447D03*
%TD*%
D36*
%TO.C,Y2*%
X191900000Y-70350000D03*
X194100000Y-70350000D03*
X194100000Y-68650000D03*
X191900000Y-68650000D03*
%TD*%
D22*
%TO.C,R26*%
X217297500Y-65405000D03*
X218947500Y-65405000D03*
%TD*%
%TO.C,R24*%
X217297500Y-62865000D03*
X218947500Y-62865000D03*
%TD*%
%TO.C,R57*%
X226822500Y-73025000D03*
X228472500Y-73025000D03*
%TD*%
%TO.C,R30*%
X217297500Y-70485000D03*
X218947500Y-70485000D03*
%TD*%
%TO.C,R27*%
X217297500Y-66675000D03*
X218947500Y-66675000D03*
%TD*%
%TO.C,R40*%
X226822500Y-51435000D03*
X228472500Y-51435000D03*
%TD*%
%TO.C,R14*%
X217297500Y-50165000D03*
X218947500Y-50165000D03*
%TD*%
%TO.C,R43*%
X226822500Y-55245000D03*
X228472500Y-55245000D03*
%TD*%
%TO.C,R50*%
X226822500Y-64135000D03*
X228472500Y-64135000D03*
%TD*%
%TO.C,R15*%
X217297500Y-51435000D03*
X218947500Y-51435000D03*
%TD*%
D29*
%TO.C,GND3*%
X192024000Y-89786447D03*
%TD*%
D31*
%TO.C,D4*%
X188125000Y-93000000D03*
X190000000Y-93000000D03*
%TD*%
D25*
%TO.C,ACBUS0*%
X197612000Y-88394553D03*
%TD*%
D29*
%TO.C,GND11*%
X213360000Y-89813447D03*
%TD*%
D27*
%TO.C,V5_SEL_3.0B1*%
X187825000Y-65800000D03*
D28*
X190365000Y-65800000D03*
%TD*%
D37*
%TO.C,CBOOT1*%
X221948500Y-89255000D03*
X220123500Y-89255000D03*
%TD*%
D22*
%TO.C,R23*%
X217297500Y-61595000D03*
X218947500Y-61595000D03*
%TD*%
D29*
%TO.C,GND7*%
X201168000Y-89786447D03*
%TD*%
D25*
%TO.C,BDBUS0*%
X203708000Y-88394553D03*
%TD*%
D22*
%TO.C,R34*%
X217297500Y-75565000D03*
X218947500Y-75565000D03*
%TD*%
D29*
%TO.C,3V3_6*%
X193040000Y-89786447D03*
%TD*%
D38*
%TO.C,CIN1*%
X206800000Y-49100000D03*
%TD*%
D29*
%TO.C,ACBUS1*%
X198120000Y-89786447D03*
%TD*%
D25*
%TO.C,ACBUS5*%
X201676000Y-88394553D03*
%TD*%
D29*
%TO.C,3V3_8*%
X211328000Y-89786447D03*
%TD*%
D11*
%TO.C,OTG_ID1*%
X206654106Y-45976000D03*
%TD*%
D25*
%TO.C,ADBUS2*%
X193548000Y-88394553D03*
%TD*%
D24*
%TO.C,R5*%
X220711000Y-85255000D03*
X222361000Y-85255000D03*
%TD*%
D25*
%TO.C,BCBUS5*%
X213868000Y-88421553D03*
%TD*%
%TO.C,BCBUS0*%
X209804000Y-88394553D03*
%TD*%
D22*
%TO.C,R47*%
X226822500Y-60325000D03*
X228472500Y-60325000D03*
%TD*%
D29*
%TO.C,3V3_1*%
X196088000Y-89786447D03*
%TD*%
D22*
%TO.C,R13*%
X217297500Y-48895000D03*
X218947500Y-48895000D03*
%TD*%
%TO.C,R37*%
X217297500Y-79375000D03*
X218947500Y-79375000D03*
%TD*%
D29*
%TO.C,3V3_4*%
X206248000Y-89786447D03*
%TD*%
D22*
%TO.C,R55*%
X226822500Y-70485000D03*
X228472500Y-70485000D03*
%TD*%
%TO.C,R61*%
X226822500Y-78105000D03*
X228472500Y-78105000D03*
%TD*%
D39*
%TO.C,C19*%
X203300000Y-58050000D03*
X203300000Y-59950000D03*
%TD*%
D22*
%TO.C,R28*%
X217297500Y-67945000D03*
X218947500Y-67945000D03*
%TD*%
D40*
%TO.C,L4*%
X218536000Y-87255000D03*
X218536000Y-84105000D03*
%TD*%
D22*
%TO.C,R53*%
X226822500Y-67945000D03*
X228472500Y-67945000D03*
%TD*%
D29*
%TO.C,ADBUS7*%
X197104000Y-89786447D03*
%TD*%
D11*
%TO.C,3V3_10*%
X208048553Y-47500000D03*
%TD*%
D25*
%TO.C,BCBUS1*%
X210820000Y-88394553D03*
%TD*%
%TO.C,ADBUS4*%
X194564000Y-88394553D03*
%TD*%
%TO.C,ADBUS6*%
X196596000Y-88394553D03*
%TD*%
D22*
%TO.C,R36*%
X217297500Y-78105000D03*
X218947500Y-78105000D03*
%TD*%
D11*
%TO.C,TPD+1*%
X191548553Y-76700000D03*
%TD*%
D31*
%TO.C,D1*%
X188062500Y-87000000D03*
X189937500Y-87000000D03*
%TD*%
D22*
%TO.C,R31*%
X217297500Y-71755000D03*
X218947500Y-71755000D03*
%TD*%
D41*
%TO.C,U4*%
X213274000Y-79951500D03*
X213924000Y-79951500D03*
X214574000Y-79951500D03*
X215224000Y-79951500D03*
X215224000Y-74226500D03*
X214574000Y-74226500D03*
X213924000Y-74226500D03*
X213274000Y-74226500D03*
%TD*%
D35*
%TO.C,U1C0_6*%
X203520000Y-68750000D03*
X204480000Y-68750000D03*
%TD*%
D42*
%TO.C,Y1*%
X203200000Y-54100000D03*
X203200000Y-56300000D03*
X201500000Y-56300000D03*
X201500000Y-54100000D03*
%TD*%
D22*
%TO.C,R54*%
X226822500Y-69215000D03*
X228472500Y-69215000D03*
%TD*%
D25*
%TO.C,BDBUS3*%
X205740000Y-88394553D03*
%TD*%
D22*
%TO.C,R38*%
X226822500Y-48895000D03*
X228472500Y-48895000D03*
%TD*%
D25*
%TO.C,BCBUS4*%
X212852000Y-88421553D03*
%TD*%
D43*
%TO.C,U3*%
X209725000Y-66395000D03*
X209725000Y-67665000D03*
X209725000Y-68935000D03*
X209725000Y-70205000D03*
X214675000Y-70205000D03*
X214675000Y-68935000D03*
X214675000Y-67665000D03*
X214675000Y-66395000D03*
%TD*%
D29*
%TO.C,BDBUS1*%
X204216000Y-89786447D03*
%TD*%
D25*
%TO.C,ADBUS1*%
X192532000Y-88394553D03*
%TD*%
D29*
%TO.C,BCBUS3*%
X212344000Y-89786447D03*
%TD*%
D32*
%TO.C,NT5*%
X208153000Y-76962000D03*
X208915000Y-76962000D03*
%TD*%
D44*
%TO.C,IC2*%
X230749500Y-90400000D03*
X230749500Y-90900000D03*
X230749500Y-91400000D03*
X232425500Y-91400000D03*
X232425500Y-90900000D03*
X232425500Y-90400000D03*
%TD*%
D38*
%TO.C,CS1*%
X211325447Y-65024000D03*
%TD*%
D22*
%TO.C,R22*%
X217297500Y-60325000D03*
X218947500Y-60325000D03*
%TD*%
D11*
%TO.C,O60*%
X208051106Y-46484000D03*
%TD*%
D29*
%TO.C,ADBUS3*%
X194056000Y-89786447D03*
%TD*%
D37*
%TO.C,CBOOT0*%
X232500000Y-92900000D03*
X230675000Y-92900000D03*
%TD*%
D29*
%TO.C,ACBUS7*%
X203200000Y-89786447D03*
%TD*%
D11*
%TO.C,CK32*%
X206654106Y-46992000D03*
%TD*%
D45*
%TO.C,INT1*%
X203327000Y-64899553D03*
%TD*%
D25*
%TO.C,BDBUS2*%
X204724000Y-88394553D03*
%TD*%
D24*
%TO.C,R121*%
X209741000Y-80010000D03*
X211391000Y-80010000D03*
%TD*%
D46*
%TO.C,U1C0_5*%
X208000000Y-78730000D03*
X208000000Y-77770000D03*
%TD*%
D22*
%TO.C,R29*%
X217297500Y-69215000D03*
X218947500Y-69215000D03*
%TD*%
D29*
%TO.C,GND8*%
X205232000Y-89786447D03*
%TD*%
D31*
%TO.C,D2*%
X188062500Y-89000000D03*
X189937500Y-89000000D03*
%TD*%
D22*
%TO.C,R45*%
X226822500Y-57785000D03*
X228472500Y-57785000D03*
%TD*%
%TO.C,R25*%
X217297500Y-64135000D03*
X218947500Y-64135000D03*
%TD*%
%TO.C,R42*%
X226822500Y-53975000D03*
X228472500Y-53975000D03*
%TD*%
%TO.C,R35*%
X217297500Y-76835000D03*
X218947500Y-76835000D03*
%TD*%
D47*
%TO.C,MICRO_USB1*%
X189427500Y-74450000D03*
D48*
X189427500Y-75087500D03*
D47*
X189427500Y-75750000D03*
X189427500Y-76400000D03*
D48*
X189427500Y-77037500D03*
D49*
X186540000Y-71750000D03*
D50*
X186540000Y-72850000D03*
D51*
X189840000Y-73350000D03*
D52*
X186540000Y-74750000D03*
X186540000Y-76750000D03*
D51*
X189840000Y-78150000D03*
D50*
X186540000Y-78650000D03*
D53*
X186540000Y-79750000D03*
%TD*%
D22*
%TO.C,R48*%
X226822500Y-61595000D03*
X228472500Y-61595000D03*
%TD*%
D26*
%TO.C,NT3*%
X206200000Y-68281000D03*
X206200000Y-67519000D03*
%TD*%
D11*
%TO.C,GND2*%
X206654106Y-48008000D03*
%TD*%
D32*
%TO.C,NT8*%
X215773000Y-72136000D03*
X215011000Y-72136000D03*
%TD*%
D26*
%TO.C,NT1*%
X201041000Y-68580000D03*
X201041000Y-67818000D03*
%TD*%
D22*
%TO.C,R18*%
X217297500Y-55245000D03*
X218947500Y-55245000D03*
%TD*%
%TO.C,R21*%
X217297500Y-59055000D03*
X218947500Y-59055000D03*
%TD*%
%TO.C,R56*%
X226822500Y-71755000D03*
X228472500Y-71755000D03*
%TD*%
%TO.C,R19*%
X217297500Y-56515000D03*
X218947500Y-56515000D03*
%TD*%
D54*
%TO.C,U2*%
X197550000Y-67487500D03*
X198500000Y-67487500D03*
X199450000Y-67487500D03*
X199450000Y-65212500D03*
X198500000Y-65212500D03*
X197550000Y-65212500D03*
%TD*%
D40*
%TO.C,L3*%
X229087500Y-90900000D03*
X229087500Y-87750000D03*
%TD*%
D25*
%TO.C,BDBUS6*%
X208788000Y-88394553D03*
%TD*%
D44*
%TO.C,IC3*%
X220198000Y-86755000D03*
X220198000Y-87255000D03*
X220198000Y-87755000D03*
X221874000Y-87755000D03*
X221874000Y-87255000D03*
X221874000Y-86755000D03*
%TD*%
D55*
%TO.C,TDO1*%
X205867000Y-66294000D03*
%TD*%
%TO.C,IO45*%
X203835000Y-66294000D03*
%TD*%
D45*
%TO.C,3V3_7*%
X205359000Y-64902106D03*
%TD*%
D56*
%TO.C,GND1*%
X191200000Y-79600000D03*
%TD*%
D45*
%TO.C,TCK1*%
X204343000Y-64897000D03*
%TD*%
D55*
%TO.C,TDI1*%
X204851000Y-66294000D03*
%TD*%
%TO.C,TMS1*%
X206883000Y-66294000D03*
%TD*%
D56*
%TO.C,ID1*%
X191448553Y-72000000D03*
%TD*%
D57*
%TO.C,ft_nrst1*%
X195051447Y-82000000D03*
%TD*%
D45*
%TO.C,TRST1*%
X207391000Y-64902106D03*
%TD*%
%TO.C,GND4*%
X206375000Y-64902106D03*
%TD*%
M02*
