%TF.GenerationSoftware,KiCad,Pcbnew,7.0.10*%
%TF.CreationDate,2024-04-14T10:11:16-07:00*%
%TF.ProjectId,ez_usb_dev_board,657a5f75-7362-45f6-9465-765f626f6172,rev?*%
%TF.SameCoordinates,Original*%
%TF.FileFunction,Paste,Top*%
%TF.FilePolarity,Positive*%
%FSLAX46Y46*%
G04 Gerber Fmt 4.6, Leading zero omitted, Abs format (unit mm)*
G04 Created by KiCad (PCBNEW 7.0.10) date 2024-04-14 10:11:16*
%MOMM*%
%LPD*%
G01*
G04 APERTURE LIST*
G04 Aperture macros list*
%AMRoundRect*
0 Rectangle with rounded corners*
0 $1 Rounding radius*
0 $2 $3 $4 $5 $6 $7 $8 $9 X,Y pos of 4 corners*
0 Add a 4 corners polygon primitive as box body*
4,1,4,$2,$3,$4,$5,$6,$7,$8,$9,$2,$3,0*
0 Add four circle primitives for the rounded corners*
1,1,$1+$1,$2,$3*
1,1,$1+$1,$4,$5*
1,1,$1+$1,$6,$7*
1,1,$1+$1,$8,$9*
0 Add four rect primitives between the rounded corners*
20,1,$1+$1,$2,$3,$4,$5,0*
20,1,$1+$1,$4,$5,$6,$7,0*
20,1,$1+$1,$6,$7,$8,$9,0*
20,1,$1+$1,$8,$9,$2,$3,0*%
G04 Aperture macros list end*
%ADD10C,0.300000*%
%ADD11RoundRect,0.200000X-0.200000X-0.219100X0.200000X-0.219100X0.200000X0.219100X-0.200000X0.219100X0*%
%ADD12RoundRect,0.250000X-0.250000X-0.475000X0.250000X-0.475000X0.250000X0.475000X-0.250000X0.475000X0*%
%ADD13RoundRect,0.200000X-0.200000X-0.275000X0.200000X-0.275000X0.200000X0.275000X-0.200000X0.275000X0*%
%ADD14RoundRect,0.250000X0.475000X-0.250000X0.475000X0.250000X-0.475000X0.250000X-0.475000X-0.250000X0*%
%ADD15RoundRect,0.243750X-0.243750X-0.456250X0.243750X-0.456250X0.243750X0.456250X-0.243750X0.456250X0*%
%ADD16RoundRect,0.075000X-0.700000X-0.075000X0.700000X-0.075000X0.700000X0.075000X-0.700000X0.075000X0*%
%ADD17RoundRect,0.075000X-0.075000X-0.700000X0.075000X-0.700000X0.075000X0.700000X-0.075000X0.700000X0*%
%ADD18RoundRect,0.140000X-0.140000X-0.170000X0.140000X-0.170000X0.140000X0.170000X-0.140000X0.170000X0*%
%ADD19R,1.400000X1.200000*%
%ADD20RoundRect,0.250000X0.262500X0.450000X-0.262500X0.450000X-0.262500X-0.450000X0.262500X-0.450000X0*%
%ADD21RoundRect,0.250000X-0.475000X0.250000X-0.475000X-0.250000X0.475000X-0.250000X0.475000X0.250000X0*%
%ADD22RoundRect,0.250000X0.700000X-0.275000X0.700000X0.275000X-0.700000X0.275000X-0.700000X-0.275000X0*%
%ADD23RoundRect,0.100000X0.100000X-0.637500X0.100000X0.637500X-0.100000X0.637500X-0.100000X-0.637500X0*%
%ADD24R,1.200000X1.400000*%
%ADD25RoundRect,0.150000X-0.825000X-0.150000X0.825000X-0.150000X0.825000X0.150000X-0.825000X0.150000X0*%
%ADD26R,0.475000X0.300000*%
%ADD27RoundRect,0.140000X0.170000X-0.140000X0.170000X0.140000X-0.170000X0.140000X-0.170000X-0.140000X0*%
%ADD28R,1.525000X0.400000*%
%ADD29R,1.525000X0.425000*%
%ADD30R,1.550000X1.200000*%
%ADD31R,1.550000X1.500000*%
%ADD32RoundRect,0.150000X0.150000X-0.512500X0.150000X0.512500X-0.150000X0.512500X-0.150000X-0.512500X0*%
G04 APERTURE END LIST*
D10*
%TO.C,IC1*%
X206500000Y-59600000D03*
X206500000Y-58800000D03*
X206500000Y-58000000D03*
X206500000Y-57200000D03*
X206500000Y-56400000D03*
X206500000Y-55600000D03*
X206500000Y-54800000D03*
X206500000Y-54000000D03*
X206500000Y-53200000D03*
X206500000Y-52400000D03*
X206500000Y-51600000D03*
X207300000Y-59600000D03*
X207300000Y-58800000D03*
X207300000Y-58000000D03*
X207300000Y-57200000D03*
X207300000Y-56400000D03*
X207300000Y-55600000D03*
X207300000Y-54800000D03*
X207300000Y-54000000D03*
X207300000Y-53200000D03*
X207300000Y-52400000D03*
X207300000Y-51600000D03*
X208100000Y-59600000D03*
X208100000Y-58800000D03*
X208100000Y-58000000D03*
X208100000Y-57200000D03*
X208100000Y-56400000D03*
X208100000Y-55600000D03*
X208100000Y-54800000D03*
X208100000Y-54000000D03*
X208100000Y-53200000D03*
X208100000Y-52400000D03*
X208100000Y-51600000D03*
X208900000Y-59600000D03*
X208900000Y-58800000D03*
X208900000Y-58000000D03*
X208900000Y-57200000D03*
X208900000Y-56400000D03*
X208900000Y-55600000D03*
X208900000Y-54800000D03*
X208900000Y-54000000D03*
X208900000Y-53200000D03*
X208900000Y-52400000D03*
X208900000Y-51600000D03*
X209700000Y-59600000D03*
X209700000Y-58800000D03*
X209700000Y-58000000D03*
X209700000Y-57200000D03*
X209700000Y-56400000D03*
X209700000Y-55600000D03*
X209700000Y-54800000D03*
X209700000Y-54000000D03*
X209700000Y-53200000D03*
X209700000Y-52400000D03*
X209700000Y-51600000D03*
X210500000Y-59600000D03*
X210500000Y-58800000D03*
X210500000Y-58000000D03*
X210500000Y-57200000D03*
X210500000Y-56400000D03*
X210500000Y-55600000D03*
X210500000Y-54800000D03*
X210500000Y-54000000D03*
X210500000Y-53200000D03*
X210500000Y-52400000D03*
X210500000Y-51600000D03*
X211300000Y-59600000D03*
X211300000Y-58800000D03*
X211300000Y-58000000D03*
X211300000Y-57200000D03*
X211300000Y-56400000D03*
X211300000Y-55600000D03*
X211300000Y-54800000D03*
X211300000Y-54000000D03*
X211300000Y-53200000D03*
X211300000Y-52400000D03*
X211300000Y-51600000D03*
X212100000Y-59600000D03*
X212100000Y-58800000D03*
X212100000Y-58000000D03*
X212100000Y-57200000D03*
X212100000Y-56400000D03*
X212100000Y-55600000D03*
X212100000Y-54800000D03*
X212100000Y-54000000D03*
X212100000Y-53200000D03*
X212100000Y-52400000D03*
X212100000Y-51600000D03*
X212900000Y-59600000D03*
X212900000Y-58800000D03*
X212900000Y-58000000D03*
X212900000Y-57200000D03*
X212900000Y-56400000D03*
X212900000Y-55600000D03*
X212900000Y-54800000D03*
X212900000Y-54000000D03*
X212900000Y-53200000D03*
X212900000Y-52400000D03*
X212900000Y-51600000D03*
X213700000Y-59600000D03*
X213700000Y-58800000D03*
X213700000Y-58000000D03*
X213700000Y-57200000D03*
X213700000Y-56400000D03*
X213700000Y-55600000D03*
X213700000Y-54800000D03*
X213700000Y-54000000D03*
X213700000Y-53200000D03*
X213700000Y-52400000D03*
X213700000Y-51600000D03*
X214500000Y-59600000D03*
X214500000Y-58800000D03*
X214500000Y-58000000D03*
X214500000Y-57200000D03*
X214500000Y-56400000D03*
X214500000Y-55600000D03*
X214500000Y-54800000D03*
X214500000Y-54000000D03*
X214500000Y-53200000D03*
X214500000Y-52400000D03*
X214500000Y-51600000D03*
%TD*%
D11*
%TO.C,R46*%
X226822500Y-59055000D03*
X228472500Y-59055000D03*
%TD*%
%TO.C,R32*%
X217297500Y-73025000D03*
X218947500Y-73025000D03*
%TD*%
D12*
%TO.C,IC2_C1_0*%
X227137500Y-92900000D03*
X229037500Y-92900000D03*
%TD*%
D11*
%TO.C,R17*%
X217297500Y-53975000D03*
X218947500Y-53975000D03*
%TD*%
%TO.C,R60*%
X226822500Y-76835000D03*
X228472500Y-76835000D03*
%TD*%
%TO.C,R33*%
X217297500Y-74295000D03*
X218947500Y-74295000D03*
%TD*%
D13*
%TO.C,R3*%
X231262500Y-88900000D03*
X232912500Y-88900000D03*
%TD*%
D11*
%TO.C,R16*%
X217297500Y-52705000D03*
X218947500Y-52705000D03*
%TD*%
%TO.C,R58*%
X226822500Y-74295000D03*
X228472500Y-74295000D03*
%TD*%
%TO.C,R44*%
X226822500Y-56515000D03*
X228472500Y-56515000D03*
%TD*%
D14*
%TO.C,IC3_C1_2*%
X218186000Y-90805000D03*
X218186000Y-88905000D03*
%TD*%
D11*
%TO.C,R49*%
X226822500Y-62865000D03*
X228472500Y-62865000D03*
%TD*%
%TO.C,R52*%
X226822500Y-66675000D03*
X228472500Y-66675000D03*
%TD*%
D15*
%TO.C,D3*%
X188062500Y-91000000D03*
X189937500Y-91000000D03*
%TD*%
D11*
%TO.C,R41*%
X226822500Y-52705000D03*
X228472500Y-52705000D03*
%TD*%
%TO.C,R20*%
X217297500Y-57785000D03*
X218947500Y-57785000D03*
%TD*%
%TO.C,R39*%
X226822500Y-50165000D03*
X228472500Y-50165000D03*
%TD*%
%TO.C,R59*%
X226822500Y-75565000D03*
X228472500Y-75565000D03*
%TD*%
%TO.C,R51*%
X226822500Y-65405000D03*
X228472500Y-65405000D03*
%TD*%
%TO.C,R62*%
X226822500Y-79375000D03*
X228472500Y-79375000D03*
%TD*%
D16*
%TO.C,U1*%
X195075000Y-72250000D03*
X195075000Y-72750000D03*
X195075000Y-73250000D03*
X195075000Y-73750000D03*
X195075000Y-74250000D03*
X195075000Y-74750000D03*
X195075000Y-75250000D03*
X195075000Y-75750000D03*
X195075000Y-76250000D03*
X195075000Y-76750000D03*
X195075000Y-77250000D03*
X195075000Y-77750000D03*
X195075000Y-78250000D03*
X195075000Y-78750000D03*
X195075000Y-79250000D03*
X195075000Y-79750000D03*
D17*
X197000000Y-81675000D03*
X197500000Y-81675000D03*
X198000000Y-81675000D03*
X198500000Y-81675000D03*
X199000000Y-81675000D03*
X199500000Y-81675000D03*
X200000000Y-81675000D03*
X200500000Y-81675000D03*
X201000000Y-81675000D03*
X201500000Y-81675000D03*
X202000000Y-81675000D03*
X202500000Y-81675000D03*
X203000000Y-81675000D03*
X203500000Y-81675000D03*
X204000000Y-81675000D03*
X204500000Y-81675000D03*
D16*
X206425000Y-79750000D03*
X206425000Y-79250000D03*
X206425000Y-78750000D03*
X206425000Y-78250000D03*
X206425000Y-77750000D03*
X206425000Y-77250000D03*
X206425000Y-76750000D03*
X206425000Y-76250000D03*
X206425000Y-75750000D03*
X206425000Y-75250000D03*
X206425000Y-74750000D03*
X206425000Y-74250000D03*
X206425000Y-73750000D03*
X206425000Y-73250000D03*
X206425000Y-72750000D03*
X206425000Y-72250000D03*
D17*
X204500000Y-70325000D03*
X204000000Y-70325000D03*
X203500000Y-70325000D03*
X203000000Y-70325000D03*
X202500000Y-70325000D03*
X202000000Y-70325000D03*
X201500000Y-70325000D03*
X201000000Y-70325000D03*
X200500000Y-70325000D03*
X200000000Y-70325000D03*
X199500000Y-70325000D03*
X199000000Y-70325000D03*
X198500000Y-70325000D03*
X198000000Y-70325000D03*
X197500000Y-70325000D03*
X197000000Y-70325000D03*
%TD*%
D18*
%TO.C,U4C0_2*%
X210848000Y-76200000D03*
X211808000Y-76200000D03*
%TD*%
D19*
%TO.C,Y2*%
X191900000Y-70350000D03*
X194100000Y-70350000D03*
X194100000Y-68650000D03*
X191900000Y-68650000D03*
%TD*%
D11*
%TO.C,R26*%
X217297500Y-65405000D03*
X218947500Y-65405000D03*
%TD*%
%TO.C,R24*%
X217297500Y-62865000D03*
X218947500Y-62865000D03*
%TD*%
%TO.C,R57*%
X226822500Y-73025000D03*
X228472500Y-73025000D03*
%TD*%
%TO.C,R30*%
X217297500Y-70485000D03*
X218947500Y-70485000D03*
%TD*%
%TO.C,R27*%
X217297500Y-66675000D03*
X218947500Y-66675000D03*
%TD*%
%TO.C,R40*%
X226822500Y-51435000D03*
X228472500Y-51435000D03*
%TD*%
%TO.C,R14*%
X217297500Y-50165000D03*
X218947500Y-50165000D03*
%TD*%
%TO.C,R43*%
X226822500Y-55245000D03*
X228472500Y-55245000D03*
%TD*%
%TO.C,R50*%
X226822500Y-64135000D03*
X228472500Y-64135000D03*
%TD*%
%TO.C,R15*%
X217297500Y-51435000D03*
X218947500Y-51435000D03*
%TD*%
D15*
%TO.C,D4*%
X188125000Y-93000000D03*
X190000000Y-93000000D03*
%TD*%
D20*
%TO.C,CBOOT1*%
X221948500Y-89255000D03*
X220123500Y-89255000D03*
%TD*%
D11*
%TO.C,R23*%
X217297500Y-61595000D03*
X218947500Y-61595000D03*
%TD*%
%TO.C,R34*%
X217297500Y-75565000D03*
X218947500Y-75565000D03*
%TD*%
D13*
%TO.C,R5*%
X220711000Y-85255000D03*
X222361000Y-85255000D03*
%TD*%
D11*
%TO.C,R47*%
X226822500Y-60325000D03*
X228472500Y-60325000D03*
%TD*%
%TO.C,R13*%
X217297500Y-48895000D03*
X218947500Y-48895000D03*
%TD*%
%TO.C,R37*%
X217297500Y-79375000D03*
X218947500Y-79375000D03*
%TD*%
%TO.C,R55*%
X226822500Y-70485000D03*
X228472500Y-70485000D03*
%TD*%
%TO.C,R61*%
X226822500Y-78105000D03*
X228472500Y-78105000D03*
%TD*%
D21*
%TO.C,C19*%
X203300000Y-58050000D03*
X203300000Y-59950000D03*
%TD*%
D11*
%TO.C,R28*%
X217297500Y-67945000D03*
X218947500Y-67945000D03*
%TD*%
D22*
%TO.C,L4*%
X218536000Y-87255000D03*
X218536000Y-84105000D03*
%TD*%
D11*
%TO.C,R53*%
X226822500Y-67945000D03*
X228472500Y-67945000D03*
%TD*%
%TO.C,R36*%
X217297500Y-78105000D03*
X218947500Y-78105000D03*
%TD*%
D15*
%TO.C,D1*%
X188062500Y-87000000D03*
X189937500Y-87000000D03*
%TD*%
D11*
%TO.C,R31*%
X217297500Y-71755000D03*
X218947500Y-71755000D03*
%TD*%
D23*
%TO.C,U4*%
X213274000Y-79951500D03*
X213924000Y-79951500D03*
X214574000Y-79951500D03*
X215224000Y-79951500D03*
X215224000Y-74226500D03*
X214574000Y-74226500D03*
X213924000Y-74226500D03*
X213274000Y-74226500D03*
%TD*%
D18*
%TO.C,U1C0_6*%
X203520000Y-68750000D03*
X204480000Y-68750000D03*
%TD*%
D24*
%TO.C,Y1*%
X203200000Y-54100000D03*
X203200000Y-56300000D03*
X201500000Y-56300000D03*
X201500000Y-54100000D03*
%TD*%
D11*
%TO.C,R54*%
X226822500Y-69215000D03*
X228472500Y-69215000D03*
%TD*%
%TO.C,R38*%
X226822500Y-48895000D03*
X228472500Y-48895000D03*
%TD*%
D25*
%TO.C,U3*%
X209725000Y-66395000D03*
X209725000Y-67665000D03*
X209725000Y-68935000D03*
X209725000Y-70205000D03*
X214675000Y-70205000D03*
X214675000Y-68935000D03*
X214675000Y-67665000D03*
X214675000Y-66395000D03*
%TD*%
D26*
%TO.C,IC2*%
X230749500Y-90400000D03*
X230749500Y-90900000D03*
X230749500Y-91400000D03*
X232425500Y-91400000D03*
X232425500Y-90900000D03*
X232425500Y-90400000D03*
%TD*%
D11*
%TO.C,R22*%
X217297500Y-60325000D03*
X218947500Y-60325000D03*
%TD*%
D20*
%TO.C,CBOOT0*%
X232500000Y-92900000D03*
X230675000Y-92900000D03*
%TD*%
D13*
%TO.C,R121*%
X209741000Y-80010000D03*
X211391000Y-80010000D03*
%TD*%
D27*
%TO.C,U1C0_5*%
X208000000Y-78730000D03*
X208000000Y-77770000D03*
%TD*%
D11*
%TO.C,R29*%
X217297500Y-69215000D03*
X218947500Y-69215000D03*
%TD*%
D15*
%TO.C,D2*%
X188062500Y-89000000D03*
X189937500Y-89000000D03*
%TD*%
D11*
%TO.C,R45*%
X226822500Y-57785000D03*
X228472500Y-57785000D03*
%TD*%
%TO.C,R25*%
X217297500Y-64135000D03*
X218947500Y-64135000D03*
%TD*%
%TO.C,R42*%
X226822500Y-53975000D03*
X228472500Y-53975000D03*
%TD*%
%TO.C,R35*%
X217297500Y-76835000D03*
X218947500Y-76835000D03*
%TD*%
D28*
%TO.C,MICRO_USB1*%
X189427500Y-74450000D03*
D29*
X189427500Y-75087500D03*
D28*
X189427500Y-75750000D03*
X189427500Y-76400000D03*
D29*
X189427500Y-77037500D03*
D30*
X186540000Y-72850000D03*
D31*
X186540000Y-74750000D03*
X186540000Y-76750000D03*
D30*
X186540000Y-78650000D03*
%TD*%
D11*
%TO.C,R48*%
X226822500Y-61595000D03*
X228472500Y-61595000D03*
%TD*%
%TO.C,R18*%
X217297500Y-55245000D03*
X218947500Y-55245000D03*
%TD*%
%TO.C,R21*%
X217297500Y-59055000D03*
X218947500Y-59055000D03*
%TD*%
%TO.C,R56*%
X226822500Y-71755000D03*
X228472500Y-71755000D03*
%TD*%
%TO.C,R19*%
X217297500Y-56515000D03*
X218947500Y-56515000D03*
%TD*%
D32*
%TO.C,U2*%
X197550000Y-67487500D03*
X198500000Y-67487500D03*
X199450000Y-67487500D03*
X199450000Y-65212500D03*
X198500000Y-65212500D03*
X197550000Y-65212500D03*
%TD*%
D22*
%TO.C,L3*%
X229087500Y-90900000D03*
X229087500Y-87750000D03*
%TD*%
D26*
%TO.C,IC3*%
X220198000Y-86755000D03*
X220198000Y-87255000D03*
X220198000Y-87755000D03*
X221874000Y-87755000D03*
X221874000Y-87255000D03*
X221874000Y-86755000D03*
%TD*%
M02*
