M48
; DRILL file {KiCad 7.0.10} date Sun 14 Apr 2024 10:11:21 AM PDT
; FORMAT={-:-/ absolute / metric / decimal}
; #@! TF.CreationDate,2024-04-14T10:11:21-07:00
; #@! TF.GenerationSoftware,Kicad,Pcbnew,7.0.10
; #@! TF.FileFunction,MixedPlating,1,8
FMAT,2
METRIC
; #@! TA.AperFunction,Plated,PTH,ViaDrill
T1C0.310
; #@! TA.AperFunction,Plated,PTH,ViaDrill
T2C0.400
; #@! TA.AperFunction,Plated,PTH,ComponentDrill
T3C0.580
; #@! TA.AperFunction,Plated,PTH,ComponentDrill
T4C0.584
; #@! TA.AperFunction,Plated,PTH,ComponentDrill
T5C0.600
; #@! TA.AperFunction,Plated,PTH,ComponentDrill
T6C0.650
; #@! TA.AperFunction,Plated,PTH,ComponentDrill
T7C0.700
; #@! TA.AperFunction,Plated,PTH,ComponentDrill
T8C1.000
; #@! TA.AperFunction,Plated,PTH,ComponentDrill
T9C2.000
%
G90
G05
T1
X186.639Y-88.341
X186.67Y-63.38
X186.7Y-60.3
X188.0Y-85.087
X188.18Y-90.79
X188.24Y-87.09
X188.825Y-69.0
X188.95Y-88.58
X189.1Y-52.0
X189.427Y-74.45
X190.07Y-92.96
X192.35Y-54.14
X192.56Y-50.26
X192.77Y-72.74
X192.77Y-77.24
X192.84Y-46.81
X192.96Y-65.72
X193.18Y-48.79
X193.18Y-49.59
X193.19Y-47.99
X193.39Y-74.7
X193.73Y-73.76
X193.75Y-76.25
X193.75Y-77.25
X193.77Y-72.73
X193.878Y-78.257
X193.92Y-53.11
X193.95Y-79.25
X194.34Y-56.38
X194.39Y-66.72
X195.9Y-53.9
X195.96Y-46.79
X196.0Y-60.5
X196.024Y-51.676
X196.175Y-47.8
X196.175Y-48.8
X196.175Y-49.6
X196.3Y-79.2
X196.418Y-51.308
X196.469Y-73.914
X196.48Y-62.87
X196.5Y-54.94
X196.58Y-57.49
X196.88Y-74.47
X196.9Y-60.5
X196.949Y-71.628
X197.06Y-73.51
X197.15Y-84.72
X197.23Y-77.75
X197.24Y-85.62
X197.412Y-46.562
X197.48Y-67.53
X197.52Y-80.4
X197.55Y-51.0
X197.635Y-78.461
X197.675Y-48.9
X197.76Y-85.11
X197.815Y-71.907
X198.08Y-68.98
X198.12Y-83.058
X198.38Y-61.28
X198.39Y-60.51
X198.44Y-80.37
X198.505Y-71.866
X198.74Y-63.2
X198.882Y-78.486
X198.889Y-86.356
X199.39Y-85.217
X199.46Y-65.24
X199.517Y-69.139
X199.52Y-67.54
X199.84Y-71.8
X199.962Y-67.85
X200.278Y-71.447
X200.406Y-69.139
X200.406Y-77.977
X200.482Y-83.21
X200.56Y-59.65
X200.82Y-48.37
X200.838Y-79.4
X201.0Y-80.55
X201.0Y-82.8
X201.01Y-62.1
X201.01Y-62.89
X201.01Y-71.52
X201.04Y-57.74
X201.04Y-58.46
X201.04Y-61.3
X201.041Y-69.139
X201.092Y-77.191
X201.25Y-85.25
X201.3Y-46.69
X201.44Y-58.12
X201.574Y-83.185
X201.625Y-69.064
X201.644Y-92.075
X202.003Y-50.684
X202.006Y-71.501
X202.032Y-83.668
X202.14Y-67.54
X202.237Y-61.7
X202.413Y-83.033
X202.514Y-71.831
X202.54Y-79.553
X202.808Y-86.112
X202.84Y-59.72
X202.892Y-58.3
X202.895Y-83.642
X202.997Y-71.476
X203.26Y-60.17
X203.27Y-47.22
X203.273Y-57.8
X203.486Y-82.975
X203.512Y-86.849
X203.52Y-68.72
X203.574Y-59.75
X203.781Y-58.24
X203.934Y-80.391
X203.98Y-71.52
X204.192Y-74.346
X204.394Y-84.734
X204.48Y-68.74
X204.59Y-69.66
X204.6Y-70.88
X204.622Y-56.921
X204.92Y-53.72
X204.95Y-54.65
X204.96Y-60.12
X204.978Y-52.197
X204.978Y-77.013
X205.05Y-74.25
X205.054Y-73.508
X205.06Y-50.3
X205.105Y-75.283
X205.207Y-69.012
X205.207Y-59.643
X205.283Y-78.207
X205.334Y-87.498
X205.511Y-80.797
X205.613Y-71.118
X205.664Y-50.165
X205.715Y-83.693
X205.74Y-52.07
X205.745Y-55.279
X205.806Y-56.717
X205.92Y-63.01
X206.197Y-68.986
X206.273Y-60.274
X206.5Y-51.6
X206.5Y-52.4
X206.5Y-53.2
X206.5Y-54.0
X206.5Y-54.8
X206.5Y-55.6
X206.5Y-56.4
X206.5Y-57.2
X206.5Y-58.0
X206.5Y-58.79
X206.5Y-59.6
X206.65Y-63.66
X206.9Y-86.21
X207.13Y-71.71
X207.29Y-60.451
X207.3Y-52.4
X207.3Y-53.2
X207.3Y-54.0
X207.3Y-54.8
X207.3Y-55.6
X207.3Y-56.4
X207.3Y-58.0
X207.3Y-58.8
X207.3Y-59.61
X207.3Y-51.6
X207.315Y-69.012
X207.529Y-72.376
X207.532Y-73.688
X207.653Y-74.677
X207.66Y-73.18
X207.81Y-63.131
X207.81Y-82.09
X207.823Y-83.744
X207.83Y-76.503
X207.931Y-75.586
X208.09Y-54.0
X208.09Y-55.6
X208.1Y-50.86
X208.1Y-51.6
X208.1Y-52.4
X208.1Y-53.2
X208.1Y-54.8
X208.1Y-56.4
X208.1Y-57.2
X208.1Y-59.6
X208.11Y-58.0
X208.178Y-68.326
X208.18Y-67.76
X208.234Y-80.96
X208.47Y-75.283
X208.526Y-67.079
X208.641Y-65.526
X208.686Y-64.541
X208.73Y-73.72
X208.731Y-63.913
X208.813Y-74.422
X208.825Y-53.1
X208.88Y-50.09
X208.9Y-51.6
X208.9Y-52.4
X208.9Y-54.0
X208.9Y-54.8
X208.9Y-55.6
X208.9Y-56.4
X208.9Y-57.2
X208.9Y-58.0
X208.9Y-58.8
X208.9Y-59.6
X208.939Y-86.689
X208.97Y-72.02
X209.067Y-86.131
X209.289Y-81.744
X209.525Y-61.062
X209.62Y-80.21
X209.671Y-76.962
X209.7Y-51.6
X209.7Y-52.4
X209.7Y-53.2
X209.7Y-54.8
X209.7Y-55.6
X209.7Y-56.4
X209.7Y-57.21
X209.7Y-58.0
X209.7Y-58.8
X209.7Y-59.6
X209.7Y-70.22
X209.72Y-68.93
X209.748Y-67.712
X209.75Y-54.05
X209.841Y-75.79
X209.85Y-50.1
X210.35Y-66.38
X210.5Y-51.6
X210.5Y-52.4
X210.5Y-53.2
X210.5Y-54.0
X210.5Y-54.8
X210.5Y-55.6
X210.5Y-56.4
X210.5Y-57.2
X210.5Y-58.8
X210.5Y-59.6
X210.51Y-58.0
X210.7Y-49.07
X211.109Y-63.005
X211.3Y-51.59
X211.3Y-52.4
X211.3Y-53.2
X211.3Y-53.99
X211.3Y-54.8
X211.3Y-55.6
X211.3Y-56.4
X211.3Y-57.2
X211.3Y-58.0
X211.3Y-58.8
X211.3Y-59.59
X211.39Y-80.01
X211.48Y-47.94
X211.545Y-61.66
X211.73Y-72.8
X211.836Y-66.675
X212.09Y-60.35
X212.1Y-51.6
X212.1Y-52.4
X212.1Y-53.2
X212.1Y-54.0
X212.1Y-54.8
X212.1Y-55.6
X212.1Y-56.4
X212.1Y-57.2
X212.1Y-58.0
X212.1Y-58.79
X212.1Y-59.6
X212.11Y-50.87
X212.2Y-67.83
X212.217Y-66.167
X212.22Y-68.81
X212.31Y-82.08
X212.522Y-69.825
X212.55Y-86.14
X212.62Y-46.77
X212.639Y-77.831
X212.776Y-70.714
X212.777Y-61.389
X212.797Y-60.826
X212.9Y-51.6
X212.9Y-52.4
X212.9Y-53.2
X212.9Y-54.0
X212.9Y-54.79
X212.9Y-55.6
X212.9Y-56.4
X212.9Y-57.2
X212.9Y-58.0
X212.9Y-58.8
X212.9Y-59.6
X212.979Y-62.865
X213.07Y-49.81
X213.09Y-50.69
X213.27Y-73.48
X213.28Y-79.33
X213.28Y-79.92
X213.28Y-80.54
X213.468Y-65.008
X213.52Y-50.26
X213.7Y-52.4
X213.7Y-53.2
X213.7Y-54.0
X213.7Y-54.8
X213.7Y-55.6
X213.7Y-56.4
X213.7Y-57.2
X213.7Y-58.0
X213.7Y-58.8
X213.7Y-59.6
X213.737Y-61.603
X213.786Y-60.591
X213.92Y-73.46
X213.93Y-79.33
X213.93Y-79.93
X213.93Y-80.55
X213.976Y-63.17
X214.08Y-65.03
X214.082Y-66.432
X214.138Y-50.766
X214.5Y-51.6
X214.5Y-53.2
X214.5Y-54.0
X214.5Y-54.8
X214.5Y-55.6
X214.5Y-56.4
X214.5Y-58.0
X214.5Y-58.8
X214.5Y-59.6
X214.57Y-73.48
X214.57Y-79.32
X214.57Y-79.95
X214.58Y-80.52
X214.639Y-77.831
X214.67Y-68.94
X214.68Y-70.2
X214.683Y-66.486
X214.697Y-61.843
X214.71Y-48.43
X214.96Y-49.78
X214.96Y-50.72
X215.198Y-66.655
X215.23Y-79.37
X215.24Y-73.49
X215.24Y-75.44
X215.26Y-80.62
X215.29Y-51.61
X215.327Y-67.69
X215.329Y-65.62
X215.352Y-59.612
X215.387Y-57.271
X215.44Y-50.24
X215.488Y-52.736
X215.773Y-66.041
X215.98Y-53.42
X215.982Y-51.535
X215.999Y-57.884
X216.041Y-56.411
X216.19Y-58.9
X216.281Y-48.768
X216.39Y-67.02
X216.408Y-79.121
X216.535Y-52.716
X216.54Y-65.22
X216.558Y-55.607
X216.566Y-50.038
X216.591Y-64.6
X217.39Y-46.5
X218.008Y-69.85
X218.02Y-58.11
X218.02Y-56.832
X218.03Y-61.58
X218.03Y-62.79
X218.059Y-75.184
X218.059Y-83.693
X218.1Y-56.14
X218.11Y-71.64
X218.118Y-55.288
X218.12Y-72.72
X218.174Y-73.71
X218.186Y-59.055
X218.186Y-60.198
X218.186Y-76.708
X218.216Y-54.168
X218.516Y-84.328
X218.948Y-56.515
X218.948Y-60.325
X219.024Y-83.693
X219.591Y-63.382
X219.609Y-54.571
X219.888Y-85.242
X219.93Y-56.68
X219.939Y-69.825
X219.988Y-57.362
X219.989Y-90.5
X220.02Y-55.5
X220.04Y-67.28
X220.2Y-87.83
X220.21Y-86.67
X220.472Y-77.343
X220.51Y-52.29
X220.58Y-48.33
X220.624Y-90.5
X220.726Y-74.93
X220.733Y-72.792
X220.792Y-60.852
X221.24Y-70.92
X221.43Y-69.85
X222.55Y-46.84
X223.139Y-89.179
X224.765Y-71.171
X224.8Y-58.76
X224.91Y-55.12
X224.99Y-48.85
X225.04Y-53.3
X225.04Y-56.66
X227.33Y-46.83
X229.037Y-92.9
X229.81Y-57.24
X229.95Y-94.2
X230.01Y-51.94
X230.03Y-50.85
X230.03Y-54.67
X230.099Y-90.068
X230.1Y-55.89
X230.13Y-53.26
X230.26Y-58.43
X230.734Y-91.465
X230.8Y-47.65
X232.912Y-88.9
X233.248Y-89.992
X233.553Y-90.907
T2
X185.9Y-64.95
X185.9Y-70.0
X185.96Y-59.23
X186.4Y-50.05
X186.4Y-76.85
X186.5Y-74.8
X186.512Y-93.218
X186.544Y-89.23
X186.55Y-52.05
X186.55Y-80.55
X186.6Y-49.25
X186.639Y-85.471
X186.65Y-46.75
X187.15Y-69.0
X187.9Y-59.49
X189.1Y-46.7
X189.1Y-49.3
X189.636Y-63.754
X189.65Y-55.1
X189.967Y-87.02
X190.1Y-70.1
X190.15Y-85.05
X190.576Y-63.729
X190.85Y-73.35
X190.85Y-78.15
X190.932Y-49.225
X190.983Y-46.711
X191.033Y-52.095
X191.15Y-90.6
X191.414Y-92.354
X191.592Y-93.548
X192.25Y-68.6
X192.25Y-70.4
X192.775Y-51.975
X192.8Y-73.75
X193.35Y-79.95
X193.75Y-68.6
X193.75Y-70.4
X194.45Y-80.6
X194.625Y-51.5
X194.843Y-93.548
X194.89Y-45.96
X195.0Y-85.0
X195.05Y-65.394
X196.75Y-76.25
X196.75Y-78.6
X196.85Y-83.058
X197.485Y-83.693
X197.509Y-65.394
X197.75Y-92.05
X198.292Y-83.718
X198.5Y-67.95
X198.7Y-73.95
X198.7Y-76.25
X199.087Y-83.525
X199.6Y-46.05
X199.65Y-51.45
X199.7Y-48.95
X199.7Y-58.9
X199.791Y-83.907
X199.95Y-80.05
X200.1Y-75.0
X200.65Y-64.75
X200.812Y-93.472
X201.0Y-72.45
X201.041Y-83.769
X201.5Y-54.55
X201.5Y-55.95
X202.0Y-52.3
X203.0Y-80.4
X203.2Y-54.5
X203.2Y-55.9
X203.6Y-52.25
X203.65Y-50.15
X204.0Y-72.45
X204.25Y-78.25
X204.4Y-61.75
X204.495Y-83.337
X204.953Y-93.142
X205.161Y-79.629
X205.166Y-57.77
X205.6Y-84.65
X206.172Y-61.366
X206.553Y-62.154
X207.925Y-79.578
X208.0Y-77.77
X208.05Y-78.75
X209.194Y-62.281
X209.385Y-63.714
X209.824Y-65.005
X209.931Y-93.218
X209.95Y-85.0
X210.0Y-74.95
X210.8Y-76.2
X211.747Y-63.244
X211.85Y-76.2
X213.065Y-63.853
X213.4Y-75.7
X214.173Y-63.881
X214.808Y-93.269
X214.95Y-91.1
X215.05Y-64.962
X215.05Y-85.05
X215.232Y-58.407
X215.232Y-61.417
X215.35Y-80.0
X216.027Y-54.432
X216.05Y-74.3
X216.154Y-60.528
X216.154Y-71.45
X218.15Y-88.9
X218.2Y-90.8
X218.55Y-85.65
X218.948Y-48.895
X218.948Y-50.165
X218.948Y-51.435
X218.948Y-52.705
X218.948Y-53.975
X218.948Y-55.245
X218.948Y-57.785
X218.948Y-59.055
X218.948Y-61.595
X218.948Y-62.865
X218.948Y-64.135
X218.948Y-65.405
X218.948Y-66.675
X218.948Y-67.945
X218.948Y-69.215
X218.948Y-70.485
X218.948Y-71.755
X218.948Y-73.025
X218.948Y-74.295
X218.948Y-75.565
X218.948Y-76.835
X218.948Y-78.105
X218.948Y-79.375
X219.9Y-45.9
X219.964Y-74.93
X219.989Y-64.77
X220.0Y-94.1
X220.2Y-80.15
X220.421Y-76.2
X220.548Y-49.53
X220.65Y-50.851
X220.877Y-62.257
X222.4Y-85.25
X224.688Y-74.854
X224.739Y-64.745
X224.739Y-69.774
X224.85Y-45.9
X224.931Y-51.779
X224.95Y-80.0
X224.95Y-85.0
X224.95Y-90.05
X225.0Y-94.1
X225.781Y-48.895
X225.781Y-50.19
X225.781Y-51.435
X225.781Y-53.975
X225.781Y-55.245
X225.781Y-57.785
X225.781Y-59.055
X225.781Y-60.325
X225.781Y-61.595
X225.781Y-62.865
X225.781Y-65.405
X225.781Y-66.675
X225.781Y-67.945
X225.781Y-69.215
X225.781Y-71.755
X225.781Y-74.295
X225.781Y-75.565
X225.781Y-76.835
X225.781Y-78.105
X225.781Y-79.375
X225.806Y-56.515
X228.473Y-48.895
X228.473Y-50.165
X228.473Y-51.435
X228.473Y-52.705
X228.473Y-53.975
X228.473Y-55.245
X228.473Y-56.515
X228.473Y-57.785
X228.473Y-59.055
X228.473Y-60.325
X228.473Y-61.595
X228.473Y-62.865
X228.473Y-64.135
X228.473Y-65.405
X228.473Y-66.675
X228.473Y-67.945
X228.473Y-69.215
X228.473Y-70.485
X228.473Y-71.755
X228.473Y-73.025
X228.473Y-74.295
X228.473Y-75.565
X228.473Y-76.835
X228.473Y-78.105
X228.473Y-79.375
X229.05Y-87.6
X229.05Y-89.35
X229.489Y-69.85
X229.692Y-64.745
X229.845Y-59.639
X230.0Y-85.0
X230.05Y-80.1
X230.073Y-49.479
X230.15Y-74.9
X230.45Y-46.6
X233.05Y-86.4
X234.1Y-75.0
X234.1Y-80.35
X234.1Y-85.0
X234.1Y-89.5
T3
X222.25Y-48.895
X222.25Y-50.165
X222.25Y-51.435
X222.25Y-52.705
X222.25Y-53.975
X222.25Y-55.245
X222.25Y-56.515
X222.25Y-57.785
X222.25Y-59.055
X222.25Y-60.325
X222.25Y-61.595
X222.25Y-62.865
X222.25Y-64.135
X222.25Y-65.405
X222.25Y-66.675
X222.25Y-67.945
X222.25Y-69.215
X222.25Y-70.485
X222.25Y-71.755
X222.25Y-73.025
X222.25Y-74.295
X222.25Y-75.565
X222.25Y-76.835
X222.25Y-78.105
X222.25Y-79.375
X223.52Y-48.895
X223.52Y-50.165
X223.52Y-51.435
X223.52Y-52.705
X223.52Y-53.975
X223.52Y-55.245
X223.52Y-56.515
X223.52Y-57.785
X223.52Y-59.055
X223.52Y-60.325
X223.52Y-61.595
X223.52Y-62.865
X223.52Y-64.135
X223.52Y-65.405
X223.52Y-66.675
X223.52Y-67.945
X223.52Y-69.215
X223.52Y-70.485
X223.52Y-71.755
X223.52Y-73.025
X223.52Y-74.295
X223.52Y-75.565
X223.52Y-76.835
X223.52Y-78.105
X223.52Y-79.375
X231.775Y-48.895
X231.775Y-50.165
X231.775Y-51.435
X231.775Y-52.705
X231.775Y-53.975
X231.775Y-55.245
X231.775Y-56.515
X231.775Y-57.785
X231.775Y-59.055
X231.775Y-60.325
X231.775Y-61.595
X231.775Y-62.865
X231.775Y-64.135
X231.775Y-65.405
X231.775Y-66.675
X231.775Y-67.945
X231.775Y-69.215
X231.775Y-70.485
X231.775Y-71.755
X231.775Y-73.025
X231.775Y-74.295
X231.775Y-75.565
X231.775Y-76.835
X231.775Y-78.105
X231.775Y-79.375
X233.045Y-48.895
X233.045Y-50.165
X233.045Y-51.435
X233.045Y-52.705
X233.045Y-53.975
X233.045Y-55.245
X233.045Y-56.515
X233.045Y-57.785
X233.045Y-59.055
X233.045Y-60.325
X233.045Y-61.595
X233.045Y-62.865
X233.045Y-64.135
X233.045Y-65.405
X233.045Y-66.675
X233.045Y-67.945
X233.045Y-69.215
X233.045Y-70.485
X233.045Y-71.755
X233.045Y-73.025
X233.045Y-74.295
X233.045Y-75.565
X233.045Y-76.835
X233.045Y-78.105
X233.045Y-79.375
T4
X191.451Y-79.6
X191.516Y-88.643
X191.7Y-72.0
X191.8Y-74.5
X191.8Y-76.7
X192.024Y-89.535
X192.532Y-88.646
X193.04Y-89.535
X193.548Y-88.646
X194.056Y-89.535
X194.564Y-88.646
X194.8Y-82.0
X195.072Y-89.535
X195.58Y-88.646
X196.088Y-89.535
X196.596Y-88.646
X197.104Y-89.535
X197.612Y-88.646
X198.12Y-89.535
X199.644Y-88.646
X200.152Y-89.538
X200.66Y-88.646
X201.168Y-89.535
X201.676Y-88.646
X202.184Y-89.535
X202.692Y-88.643
X203.2Y-89.535
X203.327Y-65.151
X203.708Y-88.646
X203.835Y-66.043
X204.216Y-89.535
X204.343Y-65.148
X204.724Y-88.646
X204.851Y-66.043
X205.232Y-89.535
X205.359Y-65.154
X205.74Y-88.646
X205.867Y-66.043
X206.248Y-89.535
X206.375Y-65.154
X206.549Y-49.1
X206.756Y-88.646
X206.883Y-66.043
X206.906Y-45.976
X206.906Y-46.992
X206.906Y-48.008
X207.264Y-89.535
X207.391Y-65.154
X208.3Y-47.5
X208.303Y-46.484
X208.788Y-88.646
X209.296Y-89.535
X209.804Y-88.646
X210.312Y-89.535
X210.82Y-88.646
X211.074Y-65.024
X211.328Y-89.535
X211.836Y-88.646
X212.344Y-89.535
X212.852Y-88.673
X213.36Y-89.562
X213.868Y-72.39
X213.868Y-88.673
X214.376Y-89.562
X214.884Y-88.673
X215.392Y-89.562
X215.875Y-63.17
T5
X191.83Y-58.02
X191.83Y-60.01
X194.32Y-58.01
X194.32Y-60.01
T6
X189.34Y-73.35
X189.34Y-78.15
T7
X188.82Y-62.01
X190.57Y-62.01
X193.07Y-62.01
X195.57Y-62.01
X197.32Y-62.01
T8
X186.54Y-72.25
X186.54Y-79.25
X186.695Y-82.726
X187.825Y-65.8
X189.235Y-82.726
X190.365Y-65.8
T9
X187.6Y-55.3
X198.6Y-55.3
M30
