%TF.GenerationSoftware,KiCad,Pcbnew,7.0.10*%
%TF.CreationDate,2024-04-14T10:11:17-07:00*%
%TF.ProjectId,ez_usb_dev_board,657a5f75-7362-45f6-9465-765f626f6172,rev?*%
%TF.SameCoordinates,Original*%
%TF.FileFunction,Soldermask,Bot*%
%TF.FilePolarity,Negative*%
%FSLAX46Y46*%
G04 Gerber Fmt 4.6, Leading zero omitted, Abs format (unit mm)*
G04 Created by KiCad (PCBNEW 7.0.10) date 2024-04-14 10:11:17*
%MOMM*%
%LPD*%
G01*
G04 APERTURE LIST*
G04 Aperture macros list*
%AMRoundRect*
0 Rectangle with rounded corners*
0 $1 Rounding radius*
0 $2 $3 $4 $5 $6 $7 $8 $9 X,Y pos of 4 corners*
0 Add a 4 corners polygon primitive as box body*
4,1,4,$2,$3,$4,$5,$6,$7,$8,$9,$2,$3,0*
0 Add four circle primitives for the rounded corners*
1,1,$1+$1,$2,$3*
1,1,$1+$1,$4,$5*
1,1,$1+$1,$6,$7*
1,1,$1+$1,$8,$9*
0 Add four rect primitives between the rounded corners*
20,1,$1+$1,$2,$3,$4,$5,0*
20,1,$1+$1,$4,$5,$6,$7,0*
20,1,$1+$1,$6,$7,$8,$9,0*
20,1,$1+$1,$8,$9,$2,$3,0*%
%AMFreePoly0*
4,1,15,-0.584200,0.000000,0.000000,0.584200,0.350520,0.584200,0.439945,0.566412,0.515757,0.515757,0.566412,0.439945,0.584200,0.350520,0.584200,0.000000,0.000000,-0.584200,-0.350520,-0.584200,-0.439945,-0.566412,-0.515757,-0.515757,-0.566412,-0.439945,-0.584200,-0.350520,-0.584200,0.000000,-0.584200,0.000000,$1*%
%AMFreePoly1*
4,1,15,-0.584200,0.350520,-0.566412,0.439945,-0.515757,0.515757,-0.439945,0.566412,-0.350520,0.584200,0.000000,0.584200,0.584200,0.000000,0.584200,-0.350520,0.566412,-0.439945,0.515757,-0.515757,0.439945,-0.566412,0.350520,-0.584200,0.000000,-0.584200,-0.584200,0.000000,-0.584200,0.350520,-0.584200,0.350520,$1*%
%AMFreePoly2*
4,1,6,1.000000,0.000000,0.500000,-0.750000,-0.500000,-0.750000,-0.500000,0.750000,0.500000,0.750000,1.000000,0.000000,1.000000,0.000000,$1*%
%AMFreePoly3*
4,1,6,0.500000,-0.750000,-0.650000,-0.750000,-0.150000,0.000000,-0.650000,0.750000,0.500000,0.750000,0.500000,-0.750000,0.500000,-0.750000,$1*%
G04 Aperture macros list end*
%ADD10FreePoly0,135.000000*%
%ADD11R,1.100000X0.750000*%
%ADD12RoundRect,0.187500X-0.362500X-0.187500X0.362500X-0.187500X0.362500X0.187500X-0.362500X0.187500X0*%
%ADD13RoundRect,0.187500X0.362500X0.187500X-0.362500X0.187500X-0.362500X-0.187500X0.362500X-0.187500X0*%
%ADD14RoundRect,0.250000X-0.250000X0.250000X-0.250000X-0.250000X0.250000X-0.250000X0.250000X0.250000X0*%
%ADD15RoundRect,0.250000X0.250000X-0.250000X0.250000X0.250000X-0.250000X0.250000X-0.250000X-0.250000X0*%
%ADD16C,1.100000*%
%ADD17RoundRect,0.275000X-0.275000X-0.275000X0.275000X-0.275000X0.275000X0.275000X-0.275000X0.275000X0*%
%ADD18RoundRect,0.750000X0.750000X-0.750000X0.750000X0.750000X-0.750000X0.750000X-0.750000X-0.750000X0*%
%ADD19RoundRect,0.750000X-0.750000X0.750000X-0.750000X-0.750000X0.750000X-0.750000X0.750000X0.750000X0*%
%ADD20FreePoly0,45.000000*%
%ADD21R,1.700000X1.700000*%
%ADD22O,1.700000X1.700000*%
%ADD23FreePoly0,225.000000*%
%ADD24R,0.900000X0.400000*%
%ADD25FreePoly0,315.000000*%
%ADD26FreePoly1,135.000000*%
%ADD27RoundRect,0.375000X0.375000X-0.875000X0.375000X0.875000X-0.375000X0.875000X-0.375000X-0.875000X0*%
%ADD28RoundRect,0.200000X-1.300000X0.300000X-1.300000X-0.300000X1.300000X-0.300000X1.300000X0.300000X0*%
%ADD29RoundRect,0.375000X-0.375000X0.875000X-0.375000X-0.875000X0.375000X-0.875000X0.375000X0.875000X0*%
%ADD30RoundRect,0.140000X-0.140000X-0.170000X0.140000X-0.170000X0.140000X0.170000X-0.140000X0.170000X0*%
%ADD31RoundRect,0.100000X-0.100000X0.130000X-0.100000X-0.130000X0.100000X-0.130000X0.100000X0.130000X0*%
%ADD32RoundRect,0.200000X0.200000X0.219100X-0.200000X0.219100X-0.200000X-0.219100X0.200000X-0.219100X0*%
%ADD33RoundRect,0.250000X-0.475000X0.250000X-0.475000X-0.250000X0.475000X-0.250000X0.475000X0.250000X0*%
%ADD34R,1.500000X1.500000*%
%ADD35FreePoly2,180.000000*%
%ADD36FreePoly2,0.000000*%
%ADD37FreePoly1,315.000000*%
%ADD38FreePoly3,0.000000*%
%ADD39RoundRect,0.100000X0.100000X-0.130000X0.100000X0.130000X-0.100000X0.130000X-0.100000X-0.130000X0*%
%ADD40RoundRect,0.140000X0.140000X0.170000X-0.140000X0.170000X-0.140000X-0.170000X0.140000X-0.170000X0*%
%ADD41RoundRect,0.200000X0.200000X0.275000X-0.200000X0.275000X-0.200000X-0.275000X0.200000X-0.275000X0*%
%ADD42RoundRect,0.200000X-0.200000X-0.275000X0.200000X-0.275000X0.200000X0.275000X-0.200000X0.275000X0*%
%ADD43RoundRect,0.250000X-0.250000X-0.475000X0.250000X-0.475000X0.250000X0.475000X-0.250000X0.475000X0*%
%ADD44RoundRect,0.250000X-0.262500X-0.450000X0.262500X-0.450000X0.262500X0.450000X-0.262500X0.450000X0*%
%ADD45RoundRect,0.250000X0.450000X-0.262500X0.450000X0.262500X-0.450000X0.262500X-0.450000X-0.262500X0*%
%ADD46FreePoly1,225.000000*%
%ADD47RoundRect,0.147500X-0.147500X-0.172500X0.147500X-0.172500X0.147500X0.172500X-0.147500X0.172500X0*%
%ADD48RoundRect,0.140000X0.170000X-0.140000X0.170000X0.140000X-0.170000X0.140000X-0.170000X-0.140000X0*%
%ADD49RoundRect,0.100000X0.021213X0.162635X-0.162635X-0.021213X-0.021213X-0.162635X0.162635X0.021213X0*%
%ADD50R,0.762000X0.203200*%
%ADD51RoundRect,0.140000X-0.170000X0.140000X-0.170000X-0.140000X0.170000X-0.140000X0.170000X0.140000X0*%
%ADD52RoundRect,0.100000X-0.130000X-0.100000X0.130000X-0.100000X0.130000X0.100000X-0.130000X0.100000X0*%
%ADD53RoundRect,0.250000X-0.312500X-0.625000X0.312500X-0.625000X0.312500X0.625000X-0.312500X0.625000X0*%
%ADD54RoundRect,0.250000X0.262500X0.450000X-0.262500X0.450000X-0.262500X-0.450000X0.262500X-0.450000X0*%
%ADD55RoundRect,0.218750X0.218750X0.381250X-0.218750X0.381250X-0.218750X-0.381250X0.218750X-0.381250X0*%
%ADD56RoundRect,0.250000X0.475000X-0.250000X0.475000X0.250000X-0.475000X0.250000X-0.475000X-0.250000X0*%
%ADD57RoundRect,0.200000X-0.275000X0.200000X-0.275000X-0.200000X0.275000X-0.200000X0.275000X0.200000X0*%
%ADD58FreePoly1,45.000000*%
%ADD59RoundRect,0.218750X-0.218750X-0.381250X0.218750X-0.381250X0.218750X0.381250X-0.218750X0.381250X0*%
%ADD60RoundRect,0.218750X-0.381250X0.218750X-0.381250X-0.218750X0.381250X-0.218750X0.381250X0.218750X0*%
%ADD61FreePoly3,180.000000*%
%ADD62RoundRect,0.250000X0.250000X0.475000X-0.250000X0.475000X-0.250000X-0.475000X0.250000X-0.475000X0*%
%ADD63R,2.750000X1.000000*%
G04 APERTURE END LIST*
D10*
%TO.C,CTL8*%
X215623153Y-63169800D03*
%TD*%
D11*
%TO.C,J2*%
X231615000Y-48895000D03*
D12*
X233205000Y-48895000D03*
D13*
X231615000Y-50165000D03*
D12*
X233205000Y-50165000D03*
D13*
X231615000Y-51435000D03*
D12*
X233205000Y-51435000D03*
D13*
X231615000Y-52705000D03*
D12*
X233205000Y-52705000D03*
D13*
X231615000Y-53975000D03*
D12*
X233205000Y-53975000D03*
D13*
X231615000Y-55245000D03*
D12*
X233205000Y-55245000D03*
D13*
X231615000Y-56515000D03*
D12*
X233205000Y-56515000D03*
D13*
X231615000Y-57785000D03*
D12*
X233205000Y-57785000D03*
D13*
X231615000Y-59055000D03*
D12*
X233205000Y-59055000D03*
D13*
X231615000Y-60325000D03*
D12*
X233205000Y-60325000D03*
D13*
X231615000Y-61595000D03*
D12*
X233205000Y-61595000D03*
D13*
X231615000Y-62865000D03*
D12*
X233205000Y-62865000D03*
D13*
X231615000Y-64135000D03*
D12*
X233205000Y-64135000D03*
D13*
X231615000Y-65405000D03*
D12*
X233205000Y-65405000D03*
D13*
X231615000Y-66675000D03*
D12*
X233205000Y-66675000D03*
D13*
X231615000Y-67945000D03*
D12*
X233205000Y-67945000D03*
D13*
X231615000Y-69215000D03*
D12*
X233205000Y-69215000D03*
D13*
X231615000Y-70485000D03*
D12*
X233205000Y-70485000D03*
D13*
X231615000Y-71755000D03*
D12*
X233205000Y-71755000D03*
D13*
X231615000Y-73025000D03*
D12*
X233205000Y-73025000D03*
D13*
X231615000Y-74295000D03*
D12*
X233205000Y-74295000D03*
D13*
X231615000Y-75565000D03*
D12*
X233205000Y-75565000D03*
D13*
X231615000Y-76835000D03*
D12*
X233205000Y-76835000D03*
D13*
X231615000Y-78105000D03*
D12*
X233205000Y-78105000D03*
D13*
X231615000Y-79375000D03*
D12*
X233205000Y-79375000D03*
%TD*%
D11*
%TO.C,J1*%
X222090000Y-48895000D03*
D12*
X223680000Y-48895000D03*
D13*
X222090000Y-50165000D03*
D12*
X223680000Y-50165000D03*
D13*
X222090000Y-51435000D03*
D12*
X223680000Y-51435000D03*
D13*
X222090000Y-52705000D03*
D12*
X223680000Y-52705000D03*
D13*
X222090000Y-53975000D03*
D12*
X223680000Y-53975000D03*
D13*
X222090000Y-55245000D03*
D12*
X223680000Y-55245000D03*
D13*
X222090000Y-56515000D03*
D12*
X223680000Y-56515000D03*
D13*
X222090000Y-57785000D03*
D12*
X223680000Y-57785000D03*
D13*
X222090000Y-59055000D03*
D12*
X223680000Y-59055000D03*
D13*
X222090000Y-60325000D03*
D12*
X223680000Y-60325000D03*
D13*
X222090000Y-61595000D03*
D12*
X223680000Y-61595000D03*
D13*
X222090000Y-62865000D03*
D12*
X223680000Y-62865000D03*
D13*
X222090000Y-64135000D03*
D12*
X223680000Y-64135000D03*
D13*
X222090000Y-65405000D03*
D12*
X223680000Y-65405000D03*
D13*
X222090000Y-66675000D03*
D12*
X223680000Y-66675000D03*
D13*
X222090000Y-67945000D03*
D12*
X223680000Y-67945000D03*
D13*
X222090000Y-69215000D03*
D12*
X223680000Y-69215000D03*
D13*
X222090000Y-70485000D03*
D12*
X223680000Y-70485000D03*
D13*
X222090000Y-71755000D03*
D12*
X223680000Y-71755000D03*
D13*
X222090000Y-73025000D03*
D12*
X223680000Y-73025000D03*
D13*
X222090000Y-74295000D03*
D12*
X223680000Y-74295000D03*
D13*
X222090000Y-75565000D03*
D12*
X223680000Y-75565000D03*
D13*
X222090000Y-76835000D03*
D12*
X223680000Y-76835000D03*
D13*
X222090000Y-78105000D03*
D12*
X223680000Y-78105000D03*
D13*
X222090000Y-79375000D03*
D12*
X223680000Y-79375000D03*
%TD*%
D14*
%TO.C,USB3_B1*%
X191830000Y-60010000D03*
D15*
X194320000Y-60010000D03*
X194320000Y-58010000D03*
D14*
X191830000Y-58020000D03*
D16*
X197320000Y-62010000D03*
X195570000Y-62010000D03*
D17*
X193070000Y-62010000D03*
D16*
X190570000Y-62010000D03*
X188820000Y-62010000D03*
D18*
X198600000Y-55300000D03*
D19*
X187600000Y-55300000D03*
%TD*%
D20*
%TO.C,BDBUS4*%
X206756000Y-88394553D03*
%TD*%
%TO.C,ACBUS6*%
X202692000Y-88392000D03*
%TD*%
%TO.C,BCBUS2*%
X211836000Y-88394553D03*
%TD*%
D10*
%TO.C,TPD-1*%
X191548553Y-74500000D03*
%TD*%
D20*
%TO.C,BCBUS6*%
X214884000Y-88421553D03*
%TD*%
%TO.C,ACBUS4*%
X200660000Y-88394553D03*
%TD*%
D21*
%TO.C,V5_SEL_MICRO1*%
X189235000Y-82726000D03*
D22*
X186695000Y-82726000D03*
%TD*%
D23*
%TO.C,ACBUS3*%
X200152000Y-89789000D03*
%TD*%
D24*
%TO.C,RN2*%
X200550000Y-62900000D03*
X200550000Y-62100000D03*
X200550000Y-61300000D03*
X200550000Y-60500000D03*
X198850000Y-60500000D03*
X198850000Y-61300000D03*
X198850000Y-62100000D03*
X198850000Y-62900000D03*
%TD*%
D23*
%TO.C,BDBUS5*%
X207264000Y-89786447D03*
%TD*%
%TO.C,3V3_9*%
X214376000Y-89813447D03*
%TD*%
%TO.C,BCBUS7*%
X215392000Y-89813447D03*
%TD*%
%TO.C,GND10*%
X210312000Y-89786447D03*
%TD*%
%TO.C,GND5*%
X195072000Y-89786447D03*
%TD*%
D20*
%TO.C,WC1*%
X213868000Y-72138553D03*
%TD*%
%TO.C,ADBUS5*%
X195580000Y-88394553D03*
%TD*%
%TO.C,ACBUS2*%
X199644000Y-88394553D03*
%TD*%
D23*
%TO.C,BDBUS7*%
X209296000Y-89786447D03*
%TD*%
D20*
%TO.C,ADBUS0*%
X191516000Y-88392000D03*
%TD*%
D23*
%TO.C,3V3_3*%
X202184000Y-89786447D03*
%TD*%
%TO.C,GND3*%
X192024000Y-89786447D03*
%TD*%
D20*
%TO.C,ACBUS0*%
X197612000Y-88394553D03*
%TD*%
D23*
%TO.C,GND11*%
X213360000Y-89813447D03*
%TD*%
D21*
%TO.C,V5_SEL_3.0B1*%
X187825000Y-65800000D03*
D22*
X190365000Y-65800000D03*
%TD*%
D23*
%TO.C,GND7*%
X201168000Y-89786447D03*
%TD*%
D20*
%TO.C,BDBUS0*%
X203708000Y-88394553D03*
%TD*%
D23*
%TO.C,3V3_6*%
X193040000Y-89786447D03*
%TD*%
D25*
%TO.C,CIN1*%
X206800000Y-49100000D03*
%TD*%
D23*
%TO.C,ACBUS1*%
X198120000Y-89786447D03*
%TD*%
D20*
%TO.C,ACBUS5*%
X201676000Y-88394553D03*
%TD*%
D23*
%TO.C,3V3_8*%
X211328000Y-89786447D03*
%TD*%
D10*
%TO.C,OTG_ID1*%
X206654106Y-45976000D03*
%TD*%
D20*
%TO.C,ADBUS2*%
X193548000Y-88394553D03*
%TD*%
%TO.C,BCBUS5*%
X213868000Y-88421553D03*
%TD*%
%TO.C,BCBUS0*%
X209804000Y-88394553D03*
%TD*%
D23*
%TO.C,3V3_1*%
X196088000Y-89786447D03*
%TD*%
%TO.C,3V3_4*%
X206248000Y-89786447D03*
%TD*%
%TO.C,ADBUS7*%
X197104000Y-89786447D03*
%TD*%
D10*
%TO.C,3V3_10*%
X208048553Y-47500000D03*
%TD*%
D20*
%TO.C,BCBUS1*%
X210820000Y-88394553D03*
%TD*%
%TO.C,ADBUS4*%
X194564000Y-88394553D03*
%TD*%
%TO.C,ADBUS6*%
X196596000Y-88394553D03*
%TD*%
D10*
%TO.C,TPD+1*%
X191548553Y-76700000D03*
%TD*%
D20*
%TO.C,BDBUS3*%
X205740000Y-88394553D03*
%TD*%
%TO.C,BCBUS4*%
X212852000Y-88421553D03*
%TD*%
D23*
%TO.C,BDBUS1*%
X204216000Y-89786447D03*
%TD*%
D20*
%TO.C,ADBUS1*%
X192532000Y-88394553D03*
%TD*%
D23*
%TO.C,BCBUS3*%
X212344000Y-89786447D03*
%TD*%
D25*
%TO.C,CS1*%
X211325447Y-65024000D03*
%TD*%
D10*
%TO.C,O60*%
X208051106Y-46484000D03*
%TD*%
D23*
%TO.C,ADBUS3*%
X194056000Y-89786447D03*
%TD*%
%TO.C,ACBUS7*%
X203200000Y-89786447D03*
%TD*%
D10*
%TO.C,CK32*%
X206654106Y-46992000D03*
%TD*%
D26*
%TO.C,INT1*%
X203327000Y-64899553D03*
%TD*%
D20*
%TO.C,BDBUS2*%
X204724000Y-88394553D03*
%TD*%
D23*
%TO.C,GND8*%
X205232000Y-89786447D03*
%TD*%
D27*
%TO.C,MICRO_USB1*%
X186540000Y-71750000D03*
D28*
X189840000Y-73350000D03*
X189840000Y-78150000D03*
D29*
X186540000Y-79750000D03*
%TD*%
D10*
%TO.C,GND2*%
X206654106Y-48008000D03*
%TD*%
D20*
%TO.C,BDBUS6*%
X208788000Y-88394553D03*
%TD*%
D30*
%TO.C,U1C0_7*%
X196270000Y-77750000D03*
X197230000Y-77750000D03*
%TD*%
D31*
%TO.C,C9*%
X207300000Y-52480000D03*
X207300000Y-53120000D03*
%TD*%
D32*
%TO.C,R65*%
X218947500Y-51435000D03*
X217297500Y-51435000D03*
%TD*%
D33*
%TO.C,C21*%
X205100000Y-57950000D03*
X205100000Y-59850000D03*
%TD*%
D34*
%TO.C,PMOD_2*%
X190300000Y-52000000D03*
X187900000Y-52000000D03*
D35*
X191100000Y-52000000D03*
D36*
X187100000Y-52000000D03*
%TD*%
D37*
%TO.C,TDO1*%
X205867000Y-66294000D03*
%TD*%
D32*
%TO.C,R98*%
X228472500Y-61595000D03*
X226822500Y-61595000D03*
%TD*%
D37*
%TO.C,IO45*%
X203835000Y-66294000D03*
%TD*%
D31*
%TO.C,C20*%
X206500000Y-58880000D03*
X206500000Y-59520000D03*
%TD*%
D32*
%TO.C,R89*%
X228472500Y-50165000D03*
X226822500Y-50165000D03*
%TD*%
D36*
%TO.C,FSLC_2*%
X197675000Y-51400000D03*
D38*
X199125000Y-51400000D03*
%TD*%
D26*
%TO.C,3V3_7*%
X205359000Y-64902106D03*
%TD*%
D32*
%TO.C,R84*%
X218947500Y-75565000D03*
X217297500Y-75565000D03*
%TD*%
D39*
%TO.C,C31*%
X214500000Y-53120000D03*
X214500000Y-52480000D03*
%TD*%
D32*
%TO.C,R99*%
X228472500Y-62865000D03*
X226822500Y-62865000D03*
%TD*%
%TO.C,R103*%
X228472500Y-67945000D03*
X226822500Y-67945000D03*
%TD*%
D40*
%TO.C,C3*%
X193480000Y-68600000D03*
X192520000Y-68600000D03*
%TD*%
D24*
%TO.C,RN1*%
X195500000Y-48000000D03*
X195500000Y-48800000D03*
X195500000Y-49600000D03*
X195500000Y-50400000D03*
X193800000Y-50400000D03*
X193800000Y-49600000D03*
X193800000Y-48800000D03*
X193800000Y-48000000D03*
%TD*%
D32*
%TO.C,R70*%
X218947500Y-57785000D03*
X217297500Y-57785000D03*
%TD*%
D41*
%TO.C,R6*%
X222361000Y-85255000D03*
X220711000Y-85255000D03*
%TD*%
D32*
%TO.C,R96*%
X228472500Y-59055000D03*
X226822500Y-59055000D03*
%TD*%
D42*
%TO.C,R119*%
X207328000Y-72009000D03*
X208978000Y-72009000D03*
%TD*%
D43*
%TO.C,C26*%
X208550000Y-61000000D03*
X210450000Y-61000000D03*
%TD*%
D44*
%TO.C,R12*%
X188087500Y-93000000D03*
X189912500Y-93000000D03*
%TD*%
D45*
%TO.C,R10*%
X188000000Y-86912500D03*
X188000000Y-85087500D03*
%TD*%
D46*
%TO.C,GND1*%
X191200000Y-79600000D03*
%TD*%
D32*
%TO.C,R72*%
X218947500Y-60325000D03*
X217297500Y-60325000D03*
%TD*%
%TO.C,R93*%
X228472500Y-55245000D03*
X226822500Y-55245000D03*
%TD*%
D47*
%TO.C,L1*%
X192765000Y-72750000D03*
X193735000Y-72750000D03*
%TD*%
D32*
%TO.C,R105*%
X228472500Y-70485000D03*
X226822500Y-70485000D03*
%TD*%
D41*
%TO.C,R4*%
X221861000Y-89255000D03*
X220211000Y-89255000D03*
%TD*%
D31*
%TO.C,C14*%
X208100000Y-58080000D03*
X208100000Y-58720000D03*
%TD*%
D48*
%TO.C,U3C0_1*%
X212217000Y-68806000D03*
X212217000Y-67846000D03*
%TD*%
D49*
%TO.C,C16*%
X209652548Y-53247452D03*
X209200000Y-53700000D03*
%TD*%
D26*
%TO.C,TCK1*%
X204343000Y-64897000D03*
%TD*%
D34*
%TO.C,PMOD_1*%
X190300000Y-49300000D03*
X187900000Y-49300000D03*
D35*
X191100000Y-49300000D03*
D36*
X187100000Y-49300000D03*
%TD*%
D31*
%TO.C,C12*%
X214500000Y-56480000D03*
X214500000Y-57120000D03*
%TD*%
D32*
%TO.C,R71*%
X218947500Y-59055000D03*
X217297500Y-59055000D03*
%TD*%
D42*
%TO.C,R115*%
X207328000Y-73533000D03*
X208978000Y-73533000D03*
%TD*%
D37*
%TO.C,TDI1*%
X204851000Y-66294000D03*
%TD*%
D30*
%TO.C,U1C0_4*%
X202974000Y-80391000D03*
X203934000Y-80391000D03*
%TD*%
D32*
%TO.C,R90*%
X228472500Y-51435000D03*
X226822500Y-51435000D03*
%TD*%
%TO.C,R88*%
X228472500Y-48895000D03*
X226822500Y-48895000D03*
%TD*%
D40*
%TO.C,C4*%
X193480000Y-70400000D03*
X192520000Y-70400000D03*
%TD*%
D50*
%TO.C,NT7*%
X198919000Y-71800000D03*
X199681000Y-71800000D03*
%TD*%
D32*
%TO.C,R79*%
X218947500Y-69215000D03*
X217297500Y-69215000D03*
%TD*%
%TO.C,R94*%
X228472500Y-56515000D03*
X226822500Y-56515000D03*
%TD*%
D34*
%TO.C,RST_PUL1*%
X200590000Y-85217000D03*
X198190000Y-85217000D03*
D35*
X201390000Y-85217000D03*
D36*
X197390000Y-85217000D03*
%TD*%
D31*
%TO.C,C28*%
X209700000Y-58080000D03*
X209700000Y-58720000D03*
%TD*%
D32*
%TO.C,R92*%
X228472500Y-53975000D03*
X226822500Y-53975000D03*
%TD*%
D41*
%TO.C,R2*%
X232412500Y-92900000D03*
X230762500Y-92900000D03*
%TD*%
D32*
%TO.C,R102*%
X228472500Y-66675000D03*
X226822500Y-66675000D03*
%TD*%
D36*
%TO.C,FSLC_1*%
X197675000Y-48900000D03*
D38*
X199125000Y-48900000D03*
%TD*%
D51*
%TO.C,C18*%
X204900000Y-53720000D03*
X204900000Y-54680000D03*
%TD*%
D52*
%TO.C,C13*%
X212980000Y-51600000D03*
X213620000Y-51600000D03*
%TD*%
D43*
%TO.C,C8*%
X213300000Y-50250000D03*
X215200000Y-50250000D03*
%TD*%
D53*
%TO.C,R8*%
X197037500Y-67850000D03*
X199962500Y-67850000D03*
%TD*%
D37*
%TO.C,TMS1*%
X206883000Y-66294000D03*
%TD*%
D32*
%TO.C,R73*%
X218947500Y-61595000D03*
X217297500Y-61595000D03*
%TD*%
D46*
%TO.C,ID1*%
X191448553Y-72000000D03*
%TD*%
D48*
%TO.C,U1C0_11*%
X204000000Y-72480000D03*
X204000000Y-71520000D03*
%TD*%
D31*
%TO.C,C15*%
X212100000Y-59680000D03*
X212100000Y-60320000D03*
%TD*%
D36*
%TO.C,FSLC_0*%
X197675000Y-46400000D03*
D38*
X199125000Y-46400000D03*
%TD*%
D32*
%TO.C,R76*%
X218947500Y-65405000D03*
X217297500Y-65405000D03*
%TD*%
%TO.C,R81*%
X218947500Y-71755000D03*
X217297500Y-71755000D03*
%TD*%
%TO.C,R91*%
X228472500Y-52705000D03*
X226822500Y-52705000D03*
%TD*%
D54*
%TO.C,R9*%
X189865000Y-89000000D03*
X188040000Y-89000000D03*
%TD*%
D34*
%TO.C,PMOD_0*%
X190300000Y-46700000D03*
X187900000Y-46700000D03*
D35*
X191100000Y-46700000D03*
D36*
X187100000Y-46700000D03*
%TD*%
D55*
%TO.C,L7*%
X204362500Y-61700000D03*
X202237500Y-61700000D03*
%TD*%
D32*
%TO.C,R87*%
X218947500Y-79375000D03*
X217297500Y-79375000D03*
%TD*%
D31*
%TO.C,C22*%
X207300000Y-56480000D03*
X207300000Y-57120000D03*
%TD*%
D32*
%TO.C,R97*%
X228472500Y-60325000D03*
X226822500Y-60325000D03*
%TD*%
D30*
%TO.C,U1C0_9*%
X192770000Y-73750000D03*
X193730000Y-73750000D03*
%TD*%
D41*
%TO.C,R114*%
X212025000Y-62800000D03*
X210375000Y-62800000D03*
%TD*%
D39*
%TO.C,C27*%
X208100000Y-51520000D03*
X208100000Y-50880000D03*
%TD*%
D32*
%TO.C,R85*%
X218947500Y-76835000D03*
X217297500Y-76835000D03*
%TD*%
D54*
%TO.C,R11*%
X188000000Y-91000000D03*
X186175000Y-91000000D03*
%TD*%
D56*
%TO.C,IC2_C1_1*%
X229087500Y-89350000D03*
X229087500Y-87450000D03*
%TD*%
D32*
%TO.C,R100*%
X228472500Y-64135000D03*
X226822500Y-64135000D03*
%TD*%
D57*
%TO.C,R113*%
X202003000Y-50684000D03*
X202003000Y-52334000D03*
%TD*%
D32*
%TO.C,R77*%
X218947500Y-66675000D03*
X217297500Y-66675000D03*
%TD*%
D41*
%TO.C,R117*%
X212026000Y-66421000D03*
X210376000Y-66421000D03*
%TD*%
D30*
%TO.C,U1C0_3*%
X197513000Y-80391000D03*
X198473000Y-80391000D03*
%TD*%
D39*
%TO.C,C32*%
X196070000Y-61210000D03*
X196070000Y-60570000D03*
%TD*%
D52*
%TO.C,C10*%
X210580000Y-51600000D03*
X211220000Y-51600000D03*
%TD*%
D32*
%TO.C,R63*%
X218947500Y-48895000D03*
X217297500Y-48895000D03*
%TD*%
%TO.C,R69*%
X218947500Y-56515000D03*
X217297500Y-56515000D03*
%TD*%
D30*
%TO.C,U1C0_10*%
X192770000Y-76250000D03*
X193730000Y-76250000D03*
%TD*%
D32*
%TO.C,R108*%
X228472500Y-74295000D03*
X226822500Y-74295000D03*
%TD*%
D57*
%TO.C,R120*%
X204216000Y-84646000D03*
X204216000Y-86296000D03*
%TD*%
D58*
%TO.C,ft_nrst1*%
X195051447Y-82000000D03*
%TD*%
D34*
%TO.C,RST_SHRT1*%
X211438800Y-77831100D03*
X213838800Y-77831100D03*
D36*
X210638800Y-77831100D03*
D35*
X214638800Y-77831100D03*
%TD*%
D32*
%TO.C,R107*%
X228472500Y-73025000D03*
X226822500Y-73025000D03*
%TD*%
%TO.C,R68*%
X218947500Y-55245000D03*
X217297500Y-55245000D03*
%TD*%
D59*
%TO.C,L6*%
X201237500Y-58100000D03*
X203362500Y-58100000D03*
%TD*%
D60*
%TO.C,L8*%
X205359000Y-52497500D03*
X205359000Y-50372500D03*
%TD*%
D30*
%TO.C,C5*%
X208889000Y-50112000D03*
X209849000Y-50112000D03*
%TD*%
D60*
%TO.C,L5*%
X203600000Y-50192500D03*
X203600000Y-52317500D03*
%TD*%
D32*
%TO.C,R67*%
X218947500Y-53975000D03*
X217297500Y-53975000D03*
%TD*%
D26*
%TO.C,TRST1*%
X207391000Y-64902106D03*
%TD*%
D32*
%TO.C,R112*%
X228472500Y-79375000D03*
X226822500Y-79375000D03*
%TD*%
D35*
%TO.C,TEST1*%
X204350000Y-78300000D03*
D61*
X202900000Y-78300000D03*
%TD*%
D48*
%TO.C,U1C0_1*%
X201000000Y-72480000D03*
X201000000Y-71520000D03*
%TD*%
D32*
%TO.C,R80*%
X218947500Y-70485000D03*
X217297500Y-70485000D03*
%TD*%
%TO.C,R111*%
X228472500Y-78105000D03*
X226822500Y-78105000D03*
%TD*%
D42*
%TO.C,R116*%
X213424000Y-75692000D03*
X215074000Y-75692000D03*
%TD*%
D39*
%TO.C,C17*%
X206500000Y-54720000D03*
X206500000Y-54080000D03*
%TD*%
D47*
%TO.C,L2*%
X192765000Y-77250000D03*
X193735000Y-77250000D03*
%TD*%
D52*
%TO.C,C29*%
X210580000Y-59600000D03*
X211220000Y-59600000D03*
%TD*%
D41*
%TO.C,R1*%
X232912500Y-88900000D03*
X231262500Y-88900000D03*
%TD*%
D32*
%TO.C,R110*%
X228472500Y-76835000D03*
X226822500Y-76835000D03*
%TD*%
%TO.C,R64*%
X218947500Y-50165000D03*
X217297500Y-50165000D03*
%TD*%
D41*
%TO.C,R7*%
X188825000Y-69000000D03*
X187175000Y-69000000D03*
%TD*%
D48*
%TO.C,C24*%
X205700000Y-56580000D03*
X205700000Y-55620000D03*
%TD*%
D62*
%TO.C,U1C1_2*%
X198700000Y-76250000D03*
X196800000Y-76250000D03*
%TD*%
D31*
%TO.C,C23*%
X207300000Y-60320000D03*
X207300000Y-59680000D03*
%TD*%
D32*
%TO.C,R95*%
X228472500Y-57785000D03*
X226822500Y-57785000D03*
%TD*%
%TO.C,R74*%
X218947500Y-62865000D03*
X217297500Y-62865000D03*
%TD*%
D48*
%TO.C,C1*%
X203200000Y-55680000D03*
X203200000Y-54720000D03*
%TD*%
D39*
%TO.C,C30*%
X212100000Y-51520000D03*
X212100000Y-50880000D03*
%TD*%
D32*
%TO.C,R82*%
X218947500Y-73025000D03*
X217297500Y-73025000D03*
%TD*%
D31*
%TO.C,C34*%
X196820000Y-60570000D03*
X196820000Y-61210000D03*
%TD*%
D63*
%TO.C,SW1*%
X212557000Y-82328000D03*
X206797000Y-82328000D03*
X212557000Y-86328000D03*
X206797000Y-86328000D03*
%TD*%
D56*
%TO.C,IC3_C1_3*%
X218536000Y-85655000D03*
X218536000Y-83755000D03*
%TD*%
D51*
%TO.C,U1C0_2*%
X205105000Y-74323000D03*
X205105000Y-75283000D03*
%TD*%
D32*
%TO.C,R86*%
X218947500Y-78105000D03*
X217297500Y-78105000D03*
%TD*%
%TO.C,R78*%
X218947500Y-67945000D03*
X217297500Y-67945000D03*
%TD*%
%TO.C,R106*%
X228472500Y-71755000D03*
X226822500Y-71755000D03*
%TD*%
D39*
%TO.C,C25*%
X207300000Y-55520000D03*
X207300000Y-54880000D03*
%TD*%
D31*
%TO.C,C11*%
X214500000Y-54880000D03*
X214500000Y-55520000D03*
%TD*%
D32*
%TO.C,R83*%
X218947500Y-74295000D03*
X217297500Y-74295000D03*
%TD*%
D48*
%TO.C,C2*%
X201500000Y-55680000D03*
X201500000Y-54720000D03*
%TD*%
D32*
%TO.C,R104*%
X228472500Y-69215000D03*
X226822500Y-69215000D03*
%TD*%
%TO.C,R66*%
X218947500Y-52705000D03*
X217297500Y-52705000D03*
%TD*%
%TO.C,R109*%
X228472500Y-75565000D03*
X226822500Y-75565000D03*
%TD*%
D30*
%TO.C,U1C0_8*%
X195989000Y-71628000D03*
X196949000Y-71628000D03*
%TD*%
D32*
%TO.C,R101*%
X228472500Y-65405000D03*
X226822500Y-65405000D03*
%TD*%
D57*
%TO.C,R118*%
X215773000Y-66041000D03*
X215773000Y-67691000D03*
%TD*%
D32*
%TO.C,R75*%
X218947500Y-64135000D03*
X217297500Y-64135000D03*
%TD*%
D26*
%TO.C,GND4*%
X206375000Y-64902106D03*
%TD*%
D62*
%TO.C,U1C1_1*%
X198700000Y-74000000D03*
X196800000Y-74000000D03*
%TD*%
M02*
